<?xml version="1.0" standalone="no"?>
<!DOCTYPE svg PUBLIC "-//W3C//DTD SVG 1.1//EN" "http://www.w3.org/Graphics/SVG/1.1/DTD/svg11.dtd" >
<svg xmlns="http://www.w3.org/2000/svg">
<metadata>
This is a custom SVG webfont generated by Font Squirrel.
Copyright   : Copyright c The Font Bureau Inc 2003 All rights reserved
Foundry     : The Font Bureau Inc
</metadata>
<defs>
<font id="FarnhamTextRegular" horiz-adv-x="1077" >
<font-face units-per-em="2048" ascent="1638" descent="-410" />
<missing-glyph horiz-adv-x="432" />
<glyph unicode=" "  horiz-adv-x="432" />
<glyph unicode="&#x09;" horiz-adv-x="432" />
<glyph unicode="&#xa0;" horiz-adv-x="432" />
<glyph unicode="!" horiz-adv-x="569" d="M139 127q0 57 44 101t101.5 44t101.5 -44t44 -101t-44 -100t-101.5 -43t-101.5 43t-44 100zM141 1247q0 49 13.5 83t35 55.5t46 30.5t49 9t49 -9t46 -30.5t35 -55.5t13.5 -83q0 -31 -6 -67l-88 -512v-234h-98v234l-89 512q-6 36 -6 67z" />
<glyph unicode="&#x22;" horiz-adv-x="868" d="M150 1288q0 35 12 60.5t31.5 43t44 25.5t47 8t47 -8t44 -25.5t32 -43t12.5 -60.5t-14 -76l-76 -221v-141h-90v141l-76 221q-14 41 -14 76zM520 1288q0 35 12.5 60.5t32 43t44 25.5t47 8t47 -8t44 -25.5t32 -43t12.5 -60.5t-15 -76l-76 -221v-141h-90v141l-75 221 q-15 41 -15 76z" />
<glyph unicode="#" horiz-adv-x="1054" d="M59 344l50 170l196 -35l57 197l-196 35l49 170l199 -37l73 250h101l-80 -267l199 -34l90 301h100l-94 -320l192 -33l-49 -170l-194 35l-58 -196l195 -35l-49 -170l-197 35l-70 -240h-100l76 256l-199 35l-86 -291h-100l90 309zM399 461l199 -35l59 197l-198 34z" />
<glyph unicode="$" horiz-adv-x="958" d="M43 246q0 55 33 94t90 39q51 0 87 -34t36 -81t-32 -74.5t-75 -33.5v-9q16 -16 73.5 -41.5t172.5 -31.5v444q-96 27 -163.5 67t-109.5 88t-61.5 104.5t-19.5 113.5q0 72 27.5 129t74.5 99t111.5 66.5t140.5 28.5v175h90v-175q154 -10 250 -72.5t96 -164.5q0 -55 -31.5 -94 t-87.5 -39q-49 0 -82.5 31.5t-33.5 78.5t24.5 73t61.5 36v8q-18 16 -65.5 33.5t-131.5 21.5v-405q207 -53 303.5 -149.5t96.5 -231.5q0 -80 -29 -144.5t-81 -110.5t-126 -72.5t-164 -28.5v-193h-90v195q-96 6 -169 29.5t-121 58.5t-71.5 79t-23.5 93zM240 958q0 -41 6 -71.5 t25.5 -56t56.5 -46t100 -39.5v377q-92 -10 -140 -50t-48 -114zM518 74q111 6 173.5 47t62.5 139q0 35 -5.5 67.5t-28 61.5t-69.5 55.5t-133 51.5v-422z" />
<glyph unicode="%" horiz-adv-x="1611" d="M68 872q0 70 27.5 132.5t74.5 108.5t107.5 72.5t124 26.5t123 -26.5t104.5 -72.5t71.5 -108.5t26.5 -132.5q0 -68 -25.5 -128t-70.5 -105t-104.5 -71.5t-125 -26.5t-126 26.5t-106.5 71.5t-73.5 105t-27.5 128zM248 872q0 -135 40 -192t113.5 -57t109.5 57t36 192 q0 141 -36 198.5t-109.5 57.5t-113.5 -57.5t-40 -198.5zM324 0l845 1196h119l-846 -1196h-118zM885 317q0 70 27.5 132.5t74.5 108.5t107.5 72.5t124 26.5t123 -26.5t104.5 -72.5t71.5 -108.5t26.5 -132.5q0 -68 -25.5 -128t-70.5 -105t-104.5 -71.5t-125 -26.5t-126 26.5 t-106.5 71.5t-73.5 105t-27.5 128zM1065 317q0 -135 40 -192t113.5 -57t109.5 57t36 192q0 141 -36 198.5t-109.5 57.5t-113.5 -57.5t-40 -198.5z" />
<glyph unicode="&#x26;" horiz-adv-x="1525" d="M55 379q0 166 102.5 279.5t297.5 179.5q-45 78 -63.5 140t-18.5 122q0 68 21.5 127t61.5 103t97 69.5t127 25.5q61 0 113.5 -20.5t90.5 -55t59.5 -82.5t21.5 -104q0 -102 -74 -178t-197 -133l350 -447q41 78 76 173.5t62 212.5l-148 43v57h465v-57l-188 -43 q-47 -141 -96.5 -257t-106.5 -208l113 -144q16 -20 33.5 -33.5t45 -22.5t70.5 -14.5t111 -9.5v-47q-45 -27 -95.5 -47t-125.5 -20q-68 0 -125.5 17.5t-104.5 76.5l-57 72q-86 -86 -188.5 -128t-229.5 -42q-119 0 -212 31.5t-156.5 86t-97.5 126t-34 151.5zM303 403 q0 -90 23.5 -149t64.5 -95t99.5 -50.5t125.5 -14.5q162 0 299 133l-317 406q-66 82 -106 145q-53 -25 -89 -54.5t-58.5 -73.5t-32 -103.5t-9.5 -143.5zM549 1163q0 -68 22.5 -124t57.5 -101l24 -31q72 47 112 101.5t40 140.5q0 61 -11.5 99t-30 58.5t-41 27.5t-46.5 7 q-51 0 -89 -38t-38 -140z" />
<glyph unicode="'" horiz-adv-x="497" d="M150 1288q0 35 12 60.5t31.5 43t44 25.5t47 8t47 -8t44 -25.5t32 -43t12.5 -60.5t-14 -76l-76 -221v-141h-90v141l-76 221q-14 41 -14 76z" />
<glyph unicode="(" horiz-adv-x="647" d="M78 624.5q0 151.5 40 287t104.5 251t147.5 211.5t167 170l55 -51q-74 -86 -125 -168t-85 -180t-49.5 -223t-15.5 -297t15.5 -297t49.5 -223.5t85 -180.5t125 -168l-55 -51q-84 74 -167 170t-147.5 212t-104.5 251t-40 286.5z" />
<glyph unicode=")" horiz-adv-x="647" d="M55 -244q74 86 125 168t85 180.5t49.5 223.5t15.5 297t-15.5 297t-49.5 223t-85 180t-125 168l56 51q84 -74 166.5 -170t147 -211.5t104.5 -251t40 -287t-40 -286.5t-104.5 -251t-147 -212t-166.5 -170z" />
<glyph unicode="*" horiz-adv-x="880" d="M68 1094q-3 12 -3 24q0 16 5 31q10 33 37.5 53.5t62.5 20.5q27 0 54.5 -13.5t54.5 -42.5l57 -63l39 -10l-25 -78l-39 10l-84 -16q-20 -4 -38 -4q-22 0 -41 6q-34 10 -54 31.5t-26 50.5zM168 778q0 33 21.5 64.5t70.5 52.5l78 33l22 35l66 -50l-23 -32l-8 -84 q-6 -66 -42 -96.5t-77 -30.5q-33 0 -61 18q-47 33 -47 90zM352 1315q0 49 32 79.5t75 30.5t74.5 -30.5t31.5 -79.5q0 -41 -22 -80l-43 -76v-41h-82v41l-43 76q-23 39 -23 80zM489 913l66 50l23 -35l77 -33q49 -20 71 -52t22 -65q0 -57 -48 -90q-27 -18 -61 -18 q-41 0 -77 30.5t-42 96.5l-8 84zM543 1094l37 10l57 63q27 29 54.5 42.5t53.5 13.5q35 0 64 -20.5t39 -53.5q6 -16 6 -32q0 -11 -3 -23q-7 -29 -27.5 -50.5t-55.5 -31.5q-19 -6 -42 -6q-18 0 -38 4l-84 16l-39 -10z" />
<glyph unicode="+" horiz-adv-x="985" d="M102 539v104h334v354h111v-354h336v-104h-336v-357h-111v357h-334z" />
<glyph unicode="," horiz-adv-x="528" d="M63 -270q106 68 154.5 145.5t48.5 136.5l-8 6q-18 -4 -43 1.5t-46.5 19.5t-35.5 39.5t-14 62.5q0 57 41 94t94 37q31 0 60.5 -11t53 -35.5t39 -64.5t15.5 -95.5t-22.5 -111.5t-65.5 -107.5t-104.5 -93.5t-141.5 -68z" />
<glyph unicode="-" horiz-adv-x="739" d="M143 485v164h453v-164h-453z" />
<glyph unicode="." horiz-adv-x="528" d="M119 127q0 57 44 101t101.5 44t101.5 -44t44 -101t-44 -100t-101.5 -43t-101.5 43t-44 100z" />
<glyph unicode="/" horiz-adv-x="868" d="M45 -270l645 1771h111l-645 -1771h-111z" />
<glyph unicode="0" horiz-adv-x="1175" d="M63 545q0 113 41 215t112 181t166 125t202 46q109 0 205 -46t167.5 -125t113.5 -181.5t42 -214.5q0 -111 -41 -213.5t-112.5 -179t-168 -122.5t-207 -46t-204.5 46t-165 122.5t-111 179t-40 213.5zM295 545q0 -150 26.5 -243t67.5 -143t93.5 -67.5t101.5 -17.5t102 17.5 t97 67.5t73 143t29 243q0 158 -27 251t-70 142t-97 64.5t-107.5 15.5t-105.5 -15.5t-93 -64.5t-65.5 -142t-24.5 -251z" />
<glyph unicode="1" horiz-adv-x="735" d="M55 0v76h215v805h-211v63l363 168h57v-1036h207v-76h-631z" />
<glyph unicode="2" horiz-adv-x="983" d="M55 0v86l241 153q110 73 187.5 144.5t121.5 149t44 165.5q0 66 -19.5 112t-53 75.5t-78.5 43t-99 13.5q-113 0 -166 -58.5t-53 -146.5q0 -43 10.5 -79.5t34.5 -77.5l-45 -35q-55 45 -83.5 106.5t-28.5 128.5q0 66 26.5 125.5t77.5 105.5t123 73.5t164 27.5 q82 0 152.5 -22.5t121.5 -67.5t81 -112.5t30 -157.5q0 -106 -62.5 -201.5t-156 -175.5t-200 -143.5t-194.5 -106.5l578 63l94 191l39 -8l-39 -371h-848z" />
<glyph unicode="3" horiz-adv-x="956" d="M27 -10q0 66 38.5 105.5t92 39.5t88.5 -36t35 -83q0 -49 -34 -86t-93 -43v-8q18 -16 79.5 -41.5t157.5 -25.5q164 0 242 74.5t78 219.5q0 82 -25 136.5t-68 88.5t-99 48t-120 14q-41 0 -69.5 -5t-53.5 -11l-22 67q174 55 244.5 142.5t70.5 185.5q0 96 -46 146.5 t-152 50.5q-96 0 -146.5 -45t-50.5 -131q0 -27 5 -51.5t14 -45.5l-50 -26q-25 29 -42 69.5t-17 79.5q0 66 25.5 120t70.5 93t108.5 59.5t137.5 20.5q78 0 140.5 -21.5t105.5 -59.5t65.5 -88t22.5 -109q0 -98 -60.5 -176t-158.5 -113v-4q76 -10 143.5 -38t117.5 -74 t79.5 -112.5t29.5 -154.5q0 -98 -34.5 -180t-97 -140.5t-150.5 -90.5t-195 -32q-84 0 -158.5 18.5t-130 53.5t-87 85.5t-31.5 113.5z" />
<glyph unicode="4" horiz-adv-x="1089" d="M39 102v117l639 875h174v-865h180v-127h-180v-364h-205v364h-608zM141 229h506v643z" />
<glyph unicode="5" horiz-adv-x="935" d="M31 -12q0 70 39 110.5t98 40.5t92 -39t33 -88t-30 -87t-93 -44v-8q18 -16 68.5 -38.5t142.5 -22.5q156 0 232.5 73.5t76.5 202.5q0 168 -122 262t-396 109l-47 43l55 592h531l84 147l39 -8l-52 -330l-532 31v-283q307 -16 474 -147t167 -361q0 -90 -32 -167.5t-92 -134 t-144 -89.5t-189 -33q-90 0 -163.5 20.5t-127 56.5t-83 85.5t-29.5 106.5z" />
<glyph unicode="6" horiz-adv-x="1062" d="M68 526q0 141 54 274.5t175 251t315.5 219t472.5 177.5l23 -64q-184 -72 -315 -143.5t-222.5 -146t-149.5 -156.5t-99 -174q111 92 241 92q92 0 172 -37t140.5 -97t95.5 -138t35 -162q0 -82 -36 -161t-99.5 -140.5t-146.5 -99t-179 -37.5q-102 0 -190.5 42t-152 114.5 t-99 171.5t-35.5 214zM285 428q0 -104 21.5 -172t57 -107.5t80.5 -55t93 -15.5q43 0 87 15.5t78.5 54t56 105t21.5 169.5q0 98 -21.5 163.5t-56 104.5t-77.5 55.5t-84 16.5q-49 0 -95.5 -15.5t-82 -54.5t-57 -102.5t-21.5 -161.5z" />
<glyph unicode="7" horiz-adv-x="966" d="M55 682l31 412h842v-105q-131 -162 -212 -283.5t-126 -229t-61.5 -214t-16.5 -239.5q0 -37 3 -59.5t7 -41t7 -35t3 -39.5q0 -53 -29.5 -87.5t-86.5 -34.5q-59 0 -102.5 50t-43.5 144q0 217 134.5 469t363.5 533l-586 -29l-88 -219z" />
<glyph unicode="8" horiz-adv-x="1060" d="M63 393q0 135 87.5 235.5t228.5 139.5q-106 33 -165.5 106.5t-59.5 172.5q0 63 26.5 121.5t75.5 102.5t118.5 70.5t155.5 26.5t156 -26.5t120 -70.5t76.5 -102.5t26.5 -121.5q0 -98 -61.5 -172t-165.5 -107q141 -37 228 -138.5t87 -236.5q0 -82 -34.5 -156.5t-96 -131 t-147.5 -89t-188.5 -32.5t-188.5 32.5t-147.5 89t-96.5 131t-35 156.5zM293 393q0 -104 20.5 -168.5t54 -98.5t76.5 -45t86 -11t86 11t77 45t54.5 98.5t20.5 168.5q0 106 -20.5 173t-54.5 104t-77 49t-86 12t-86 -12t-76.5 -49t-54 -104t-20.5 -173zM356 1046.5 q0 -71.5 14.5 -117.5t38 -74t55.5 -39t66.5 -11t66.5 11t56.5 39t39 74t14.5 117.5t-14.5 117.5t-39 73t-56.5 36t-66.5 9t-66.5 -9t-55.5 -36t-38 -73t-14.5 -117.5z" />
<glyph unicode="9" horiz-adv-x="1062" d="M59 674q0 84 36 162.5t99.5 140t147.5 98.5t178 37q102 0 190.5 -42t152 -114.5t99 -172t35.5 -214.5q0 -141 -44 -267t-148.5 -236.5t-280.5 -203.5t-442 -169l-23 65q178 72 297 140.5t198 139.5t126 148.5t80 167.5q-55 -55 -122 -84.5t-136 -29.5q-92 0 -172 36.5 t-140.5 97t-95.5 138.5t-35 162zM285 674q0 -96 21.5 -160.5t56 -104.5t77.5 -57.5t84 -17.5q49 0 96.5 16.5t83 55t58 103t22.5 159.5q0 100 -22.5 167.5t-58 107.5t-82 57.5t-93.5 17.5q-43 0 -87 -16.5t-78.5 -56.5t-56 -106.5t-21.5 -164.5z" />
<glyph unicode=":" horiz-adv-x="544" d="M127 127q0 57 44 101t101.5 44t101.5 -44t44 -101t-44 -100t-101.5 -43t-101.5 43t-44 100zM127 665.5q0 57.5 44 100.5t101.5 43t101.5 -43t44 -100.5t-44 -100.5t-101.5 -43t-101.5 43t-44 100.5z" />
<glyph unicode=";" horiz-adv-x="544" d="M70 -270q106 68 154 145.5t48 136.5l-8 6q-18 -4 -42.5 1.5t-46 19.5t-36 39.5t-14.5 62.5q0 57 41 94t94 37q31 0 60.5 -11t53 -35.5t39 -64.5t15.5 -95.5t-22.5 -111.5t-65.5 -107.5t-104.5 -93.5t-141.5 -68zM127 665.5q0 57.5 44 100.5t101.5 43t101.5 -43t44 -100.5 t-44 -100.5t-101.5 -43t-101.5 43t-44 100.5z" />
<glyph unicode="&#x37e;" horiz-adv-x="544" d="M70 -270q106 68 154 145.5t48 136.5l-8 6q-18 -4 -42.5 1.5t-46 19.5t-36 39.5t-14.5 62.5q0 57 41 94t94 37q31 0 60.5 -11t53 -35.5t39 -64.5t15.5 -95.5t-22.5 -111.5t-65.5 -107.5t-104.5 -93.5t-141.5 -68zM127 665.5q0 57.5 44 100.5t101.5 43t101.5 -43t44 -100.5 t-44 -100.5t-101.5 -43t-101.5 43t-44 100.5z" />
<glyph unicode="&#x3c;" horiz-adv-x="772" d="M63 524v111q188 33 335 130t233 224l82 -65q-80 -119 -208 -209t-286 -135q158 -45 286 -135.5t208 -208.5l-82 -66q-86 127 -233 224t-335 130z" />
<glyph unicode="=" horiz-adv-x="985" d="M102 385v104h781v-104h-781zM102 692v105h781v-105h-781z" />
<glyph unicode="&#x3e;" horiz-adv-x="772" d="M59 236q80 119 208 209t286 135q-158 45 -286 135t-208 209l82 65q86 -127 232.5 -224t335.5 -130v-111q-188 -33 -335 -130t-233 -224z" />
<glyph unicode="?" horiz-adv-x="917" d="M63 1157q0 47 23 94t68 86t110.5 63.5t153.5 24.5q98 0 173 -26.5t125 -73.5t76.5 -108.5t26.5 -133.5q0 -80 -26.5 -136t-72.5 -99t-111 -79l-142 -79q-55 -31 -70.5 -55.5t-15.5 -54.5q0 -20 8 -35t30.5 -24t60.5 -13t98 -6v-53q-23 -10 -57 -20.5t-79 -10.5 q-74 0 -125 45t-51 121q0 43 17.5 80.5t47 72.5t66.5 68l76 67q39 35 64.5 62t42 53.5t23.5 57t7 71.5q0 59 -17.5 98t-49 61.5t-74.5 33t-94 10.5q-111 0 -172.5 -51t-63.5 -131h8q16 23 35 34t51 11q41 0 75 -30t34 -77t-33 -78.5t-82 -31.5q-84 0 -124 57t-40 135z M281 127q0 57 44 101t101 44t101 -44t44 -101t-44 -100t-101 -43t-101 43t-44 100z" />
<glyph unicode="@" horiz-adv-x="1789" d="M59 322q0 123 36 246.5t101.5 238.5t157.5 214t205 173t244 116t272 42q139 0 259 -43t208 -121t138.5 -188.5t50.5 -243.5q0 -158 -49.5 -297.5t-128 -243.5t-175 -164.5t-190.5 -60.5q-102 0 -154.5 60.5t-52.5 164.5v27l131 299l-4 2q-68 -123 -131.5 -220.5 t-123.5 -165t-118.5 -104.5t-118.5 -37q-66 0 -111.5 45.5t-45.5 135.5q0 80 23.5 169t63.5 175t93 164.5t114.5 138t126 94.5t126.5 35q49 0 84.5 -23.5t58.5 -54.5l18 68h199l-213 -791q-6 -23 -6 -40q0 -14 4 -24q8 -24 43 -24q74 0 140.5 50t118.5 137t83 208t31 262 q0 260 -128 391.5t-370 131.5q-176 0 -325.5 -76t-259 -204t-171 -295t-61.5 -351q0 -313 136 -456.5t413 -143.5q68 0 138.5 8t138 21.5t130 30t113.5 32.5l22 -51q-102 -53 -251.5 -94t-311.5 -41q-156 0 -288 52t-228 143t-150.5 215.5t-54.5 267.5zM672 221 q0 -35 10 -47t29 -12q20 0 50 15.5t71.5 59.5t98 121.5t128.5 202.5l65 246q-18 41 -45.5 62.5t-77.5 21.5q-86 0 -164.5 -117t-140.5 -389q-24 -117 -24 -164z" />
<glyph unicode="A" horiz-adv-x="1624" d="M27 0v66l180 40l581 1324h89l553 -1324l167 -40v-66h-596v66l181 40l-168 422h-500l-172 -422l178 -40v-66h-493zM553 623h424l-209 526z" />
<glyph unicode="B" horiz-adv-x="1345" d="M78 1343v66h624q106 0 197.5 -22.5t159 -67.5t105.5 -112.5t38 -159.5q0 -63 -26.5 -114.5t-70.5 -89.5t-103.5 -61.5t-127.5 -36.5v-10q90 -10 164 -35.5t128.5 -69.5t84 -107.5t29.5 -147.5q0 -92 -39 -162t-107.5 -117t-162.5 -71.5t-205 -24.5h-688v66l192 40v1197z M508 100h233q84 0 139.5 13.5t89.5 46.5t48 85t14 130q0 80 -14 139t-51 97t-98.5 57.5t-157.5 19.5h-203v-588zM508 782h131q98 0 161.5 12.5t100.5 43t51.5 82t14.5 127.5q0 78 -13.5 128t-47.5 79.5t-90 42t-140 12.5h-168v-527z" />
<glyph unicode="C" horiz-adv-x="1372" d="M82 705q0 137 50 267t140 230.5t213 161.5t271 61q70 0 124 -11t99 -29.5t81 -43t66 -51.5l54 119h51l49 -504l-47 -12q-63 129 -119.5 212t-111 131t-111.5 65.5t-125 17.5q-102 0 -180 -27.5t-131.5 -98.5t-81 -193.5t-27.5 -315.5q0 -170 28.5 -284.5t85 -183.5 t139.5 -97.5t192 -28.5q156 0 267 73t183 185l70 -49q-90 -154 -222.5 -234.5t-324.5 -80.5q-154 0 -279 58t-215 157.5t-139 231t-49 274.5z" />
<glyph unicode="D" horiz-adv-x="1552" d="M78 0v66l192 40v1197l-192 40v66h649q172 0 310.5 -58.5t234.5 -156.5t147 -225t51 -264.5t-51 -264.5t-147 -225t-234.5 -156.5t-310.5 -58.5h-649zM508 98h184q145 0 245.5 31t162 101.5t89.5 186t28 288.5q0 180 -30 296.5t-93.5 185t-163 95.5t-238.5 27h-184v-1211z " />
<glyph unicode="E" horiz-adv-x="1370" d="M78 0v66l192 40v1197l-192 40v66h1104l49 -395l-43 -10l-203 296l-477 37v-577l258 16l84 223h49v-544h-49l-84 211l-258 14v-602l553 31l219 362l49 -10l-61 -461h-1190z" />
<glyph unicode="F" horiz-adv-x="1298" d="M78 0v66l192 40v1197l-192 40v66h1124l49 -440l-43 -6l-215 344l-485 30v-587l278 16l84 229h50v-553h-50l-84 213l-278 17v-566l199 -40v-66h-629z" />
<glyph unicode="G" horiz-adv-x="1515" d="M82 705q0 137 51 267t142.5 230.5t216 161.5t274.5 61q72 0 126 -11t97 -30.5t77 -44t64 -53.5l50 123h47l57 -465l-51 -12q-59 106 -110.5 180t-104.5 119t-113.5 65.5t-138.5 20.5q-98 0 -177 -27.5t-135.5 -99.5t-86 -194t-29.5 -312q0 -164 28.5 -277.5t85 -184 t142.5 -101.5t201 -31q88 0 156.5 21.5t125.5 62.5v356l-192 41v66h581v-66l-155 -41v-530h-47l-86 166q-76 -82 -181.5 -132t-240.5 -50q-158 0 -283 58t-212 157.5t-133 231t-46 274.5z" />
<glyph unicode="H" horiz-adv-x="1677" d="M78 0v66l192 40v1197l-192 40v66h606v-66l-176 -40v-541h678v541l-180 40v66h606v-66l-189 -40v-1197l189 -40v-66h-606v66l180 40v553h-678v-553l176 -40v-66h-606z" />
<glyph unicode="I" horiz-adv-x="794" d="M78 0v66l201 40v1197l-201 40v66h639v-66l-201 -40v-1197l201 -40v-66h-639z" />
<glyph unicode="J" horiz-adv-x="778" d="M-139 -205q0 63 34.5 101t94.5 38q55 0 93 -34.5t38 -87.5q0 -41 -22.5 -66t-59.5 -39v-8q31 -10 67 -10q39 0 71 9t54.5 34.5t35 71.5t12.5 120v1379l-201 40v66h622v-66l-184 -40v-1242q0 -133 -35 -220t-90 -137t-122.5 -70.5t-135.5 -20.5q-133 0 -202.5 54 t-69.5 128z" />
<glyph unicode="K" horiz-adv-x="1482" d="M78 0v66l192 40v1197l-192 40v66h586v-66l-156 -40v-572h147l443 574l-152 38v66h453v-66l-148 -38l-452 -529l540 -674l127 -36v-66h-540v66l135 40l-408 543h-145v-543l156 -40v-66h-586z" />
<glyph unicode="L" horiz-adv-x="1286" d="M78 0v66l192 40v1197l-192 40v66h629v-66l-199 -40v-1225l471 37l231 379l50 -11l-70 -483h-1112z" />
<glyph unicode="M" horiz-adv-x="1939" d="M78 0v66l192 40v1197l-192 40v66h491l410 -1024l379 1024h504v-66l-193 -40v-1197l193 -40v-66h-607v66l177 40v1199l-482 -1264h-71l-527 1264l56 -1199l174 -40v-66h-504z" />
<glyph unicode="N" horiz-adv-x="1595" d="M78 0v66l192 40v1197l-192 40v66h457l733 -1008l-41 902l-213 40v66h524v-66l-176 -40v-1323h-64l-944 1298l52 -1172l217 -40v-66h-545z" />
<glyph unicode="O" horiz-adv-x="1570" d="M82 698.5q0 137.5 50 268.5t142.5 232t220.5 163.5t281.5 62.5t284.5 -62.5t226 -163.5t148.5 -232t53.5 -268.5t-52.5 -265.5t-147.5 -228.5t-225 -160.5t-288 -60t-286 60t-219 160.5t-140 228.5t-49 265.5zM338 698q0 -319 110.5 -462.5t327.5 -143.5q106 0 191.5 35 t144.5 108.5t91 188.5t32 274q0 168 -29.5 285t-88 190.5t-144.5 107.5t-197 34q-113 0 -195.5 -34t-137 -108.5t-80 -191.5t-25.5 -283z" />
<glyph unicode="P" horiz-adv-x="1323" d="M76 1343v66h663q111 0 208 -27.5t169 -81t114 -131t42 -176.5q0 -92 -34 -172t-96.5 -138t-152.5 -91t-203 -33q-76 0 -147 14l-133 23v-490l199 -40v-66h-629v66l192 40v1197zM506 682l168 -14q29 -4 53 -4h47q84 0 134 18t76 57t34 102.5t8 151.5q0 102 -15.5 165 t-52 96.5t-96 45t-147.5 11.5h-209v-629z" />
<glyph unicode="Q" horiz-adv-x="1570" d="M82 698q0 137 50 268.5t142.5 232.5t220.5 163.5t281.5 62.5t284.5 -62.5t226 -163.5t148.5 -232t53.5 -269q0 -117 -38 -228.5t-108.5 -203.5t-169 -160.5t-219.5 -99.5q53 -86 97.5 -147.5t81.5 -100.5q23 -25 50 -38t69 -19t103.5 -7t153.5 -1v-55 q-55 -10 -121.5 -19.5t-127.5 -9.5q-88 0 -162 21.5t-139.5 67.5t-131 117.5t-139.5 174.5q-139 16 -250.5 80.5t-190.5 162t-122 218t-43 247.5zM338 698q0 -319 110.5 -462.5t327.5 -143.5q106 0 191.5 35t144.5 108.5t91 188.5t32 274q0 168 -29.5 285t-88 190.5 t-144.5 107.5t-197 34q-113 0 -195.5 -34t-137 -108.5t-80 -191.5t-25.5 -283z" />
<glyph unicode="R" horiz-adv-x="1458" d="M78 0v66l192 40v1197l-192 40v66h649q106 0 201.5 -24.5t166 -72.5t112.5 -120t42 -168q0 -82 -32.5 -142.5t-89 -103.5t-133 -70.5t-167.5 -39.5v-9q53 -6 94.5 -19t78 -40t69.5 -69t68 -107l170 -318l135 -40v-66h-299q-47 0 -67.5 11.5t-31.5 39.5l-82 222 q-34 93 -62 157t-52.5 103.5t-54 60t-67.5 28t-93 7.5h-125v-523l199 -40v-66h-629zM508 729h154q104 0 170.5 12.5t104.5 44t52.5 89t14.5 149.5t-14.5 148.5t-48.5 87t-92 41t-147 10.5h-194v-582z" />
<glyph unicode="S" horiz-adv-x="1167" d="M80 506l53 16q70 -125 125 -209t109.5 -134t115 -70.5t140.5 -20.5q121 0 196.5 50t75.5 171q0 66 -16.5 111t-56.5 78.5t-105.5 62.5t-163.5 62q-88 29 -167 64.5t-138.5 85.5t-94 119t-34.5 163q0 80 27.5 147.5t81 117.5t129 77.5t171.5 27.5q109 0 186 -36.5 t120 -79.5l49 100h51l45 -424l-47 -10q-59 102 -106.5 168.5t-92.5 105.5t-94 55.5t-115 16.5q-109 0 -171 -48t-62 -153q0 -53 15.5 -90t52 -64.5t97 -51t148.5 -50.5q92 -27 179 -66.5t155 -95t108.5 -130t40.5 -171.5q0 -195 -122.5 -306t-343.5 -111q-141 0 -233.5 47 t-147.5 106l-56 -137h-53z" />
<glyph unicode="T" horiz-adv-x="1359" d="M53 928l29 481h1196l29 -481l-50 -10l-198 387l-260 32v-1231l219 -40v-66h-676v66l219 40v1231l-260 -32l-199 -387z" />
<glyph unicode="U" horiz-adv-x="1628" d="M78 1343v66h575v-66l-155 -40v-820q0 -115 19.5 -188.5t64.5 -116.5t116.5 -59.5t175.5 -16.5q102 0 172 17.5t115 61.5t64.5 120t19.5 191v811l-176 40v66h481v-66l-159 -40l-39 -877q-10 -225 -139.5 -333.5t-383.5 -108.5q-125 0 -229 29.5t-180 90t-118 150.5 t-42 209v840z" />
<glyph unicode="V" horiz-adv-x="1558" d="M37 1343v66h590v-66l-172 -40l389 -1049l385 1049l-191 40v66h484v-66l-154 -40l-549 -1323h-92l-528 1323z" />
<glyph unicode="W" horiz-adv-x="2226" d="M37 1343v66h573v-66l-182 -40l365 -1020l258 782l-90 238l-158 40v66h583v-66l-200 -40l389 -1010l305 1010l-176 40v66h485v-66l-174 -40l-456 -1323h-89l-362 938l-336 -938h-88l-496 1323z" />
<glyph unicode="X" horiz-adv-x="1478" d="M37 0v66l166 40l420 607l-418 590l-137 40v66h591v-66l-180 -40l314 -480l286 480l-170 40v66h482v-66l-164 -40l-385 -551l454 -646l146 -40v-66h-592v66l172 40l-346 529l-326 -529l168 -40v-66h-481z" />
<glyph unicode="Y" horiz-adv-x="1503" d="M37 1343v66h602v-66l-178 -51l366 -602l332 613l-184 40v66h491v-66l-161 -40l-420 -687v-510l198 -40v-66h-634v66l198 40v486l-457 700z" />
<glyph unicode="Z" horiz-adv-x="1292" d="M59 0v53l893 1284l-555 -37l-202 -296l-43 12l49 393h1032v-43l-897 -1292l612 35l219 358l50 -14l-62 -453h-1096z" />
<glyph unicode="[" horiz-adv-x="747" d="M176 -270v1771h518v-65l-313 -33v-1575l313 -33v-65h-518z" />
<glyph unicode="\" horiz-adv-x="868" d="M68 1501h110l643 -1771h-110z" />
<glyph unicode="]" horiz-adv-x="747" d="M53 -205l314 33v1575l-314 33v65h518v-1771h-518v65z" />
<glyph unicode="^" horiz-adv-x="880" d="M61 850q92 92 146.5 171t86.5 143.5t46 112.5t25.5 82t26 50t45 16t45 -16t26.5 -49t27.5 -82t48 -112.5t88 -142.5t147.5 -173l-45 -45l-334 262l-334 -262z" />
<glyph unicode="_" horiz-adv-x="696" d="M-20 -172h737v-102h-737v102z" />
<glyph unicode="`" horiz-adv-x="987" d="M248 1358q0 31 16 57q25 41 78 41q27 0 55.5 -13t57.5 -46l157 -180l90 -60l-40 -67l-93 59l-223 90q-53 23 -75.5 54.5t-22.5 64.5z" />
<glyph unicode="a" horiz-adv-x="1021" d="M63 203q0 131 105.5 200.5t304.5 110.5l156 33v135q0 68 -16.5 110t-49.5 65.5t-80 32.5t-106 9q-53 0 -91 -9t-57 -20v-8q47 -12 68.5 -47t21.5 -72q0 -45 -31.5 -74.5t-82.5 -29.5q-53 0 -87 36t-34 91q0 57 34 101t89 74t123.5 45t138.5 15q92 0 160.5 -20t115 -70.5 t70 -137.5t23.5 -222v-371q0 -25 6 -39t23.5 -21t47 -11.5t76.5 -6.5v-47q-25 -16 -73 -41.5t-113 -25.5q-78 0 -127 41t-49 112v29q-25 -33 -59.5 -66.5t-75.5 -60.5t-87.5 -43t-93.5 -16q-113 0 -181.5 59.5t-68.5 159.5zM274 246q0 -66 30 -95.5t91 -29.5 q74 0 128.5 30.5t105.5 90.5v239l-156 -51q-61 -20 -100 -39.5t-60.5 -41t-30 -46t-8.5 -57.5z" />
<glyph unicode="b" horiz-adv-x="1150" d="M-8 1374v39l327 129h48v-581l-33 -195l4 -2q37 45 77 88t86 76t98 53t116 20q82 0 150.5 -36.5t118.5 -103t79 -160t29 -203.5q0 -119 -35 -214.5t-95.5 -162t-142.5 -102t-178 -35.5q-78 0 -168 31.5t-182 129.5l-86 -145h-47v1311zM367 170q53 -47 107 -71.5t122 -24.5 q53 0 100 14t82 47q88 86 88 363q0 137 -18.5 222t-63.5 120q-29 23 -64.5 28.5t-60.5 5.5q-51 0 -91 -13t-73.5 -36.5t-64.5 -55.5l-63 -67v-532z" />
<glyph unicode="c" horiz-adv-x="931" d="M55 493.5q0 96.5 32 187.5t94.5 162.5t154.5 114.5t211 43q147 0 237 -64.5t90 -174.5q0 -51 -34.5 -90t-94.5 -39q-53 0 -89.5 34.5t-36.5 86.5q0 94 92 127v8q-16 6 -49 14t-95 8q-63 0 -115.5 -16t-90 -59t-58 -121t-20.5 -201q0 -127 21.5 -208t61.5 -127t97 -63.5 t131 -17.5q76 0 129 14.5t113 37.5l24 -56q-70 -45 -148.5 -77.5t-191 -32.5t-200 44t-146.5 115.5t-89 162.5t-30 187.5z" />
<glyph unicode="d" horiz-adv-x="1191" d="M59 487q0 119 34 214.5t93.5 162t141.5 102t178 35.5q80 0 150.5 -28.5t127.5 -81.5v420l-166 63v39l328 129h47v-1358l166 -55v-47l-328 -94h-40l26 231l-4 2q-70 -109 -152.5 -173t-197.5 -64q-90 0 -165 36.5t-128 103t-82 159.5t-29 204zM285 469q0 -137 24.5 -222 t69.5 -120q29 -23 58.5 -29t54.5 -6q51 0 93 15.5t76.5 42t64.5 61.5l58 72v520q-47 43 -104 66.5t-133 23.5q-111 0 -174 -62q-88 -86 -88 -362z" />
<glyph unicode="e" horiz-adv-x="956" d="M55 479q0 104 34 198.5t94.5 166t145.5 114.5t185 43q78 0 149.5 -23.5t125 -78.5t86 -145t34.5 -224h-630v-26q0 -121 17 -199t53 -124t89.5 -63.5t126.5 -17.5q86 0 148.5 14.5t128.5 39.5l24 -56q-72 -47 -160 -80.5t-198 -33.5q-113 0 -198 41t-142 110.5t-85 158.5 t-28 185zM283 625h415q-4 90 -14 145t-31.5 87t-55.5 43t-85 11q-45 0 -83 -11t-68.5 -42t-50 -87t-27.5 -146z" />
<glyph unicode="f" horiz-adv-x="669" d="M29 864v56l170 38v152q0 133 36.5 220t93 137.5t125 71t130.5 20.5q121 0 195.5 -61.5t74.5 -164.5q0 -53 -35 -92t-90 -39q-51 0 -86 33t-35 78q0 55 31 86t78 37v8q-12 10 -37 17t-59 7q-63 0 -104.5 -13t-66 -42t-33.5 -76t-9 -112v-256h235v-105h-235v-788h176v-76 h-537v76h152v788h-170z" />
<glyph unicode="g" horiz-adv-x="1058" d="M27 -178q0 78 55 132t129 85q-59 18 -83 53t-24 94q0 37 13.5 69t33 58.5t44 48t49.5 37.5q-72 47 -112 119t-40 154q0 66 25.5 125t75 104t120 72.5t158.5 27.5q86 0 142.5 -21.5t101.5 -47t86 -46t98 -20.5v11q-29 18 -29 61q0 29 21.5 55.5t69.5 26.5q45 0 73.5 -33 t28.5 -74q0 -59 -35 -90.5t-88 -31.5q-51 0 -91 12t-71 31l-6 -7q29 -31 52.5 -70.5t23.5 -105.5q0 -57 -25.5 -113.5t-75 -100.5t-119 -71.5t-157.5 -27.5q-102 0 -184 39q-20 -27 -33.5 -56.5t-13.5 -58.5q0 -25 12 -38t50 -19t110.5 -8t193.5 -7q193 -8 284 -72.5 t91 -166.5q0 -104 -47 -180t-122 -125t-167 -72t-184 -23q-78 0 -156 17.5t-139.5 51.5t-100 85t-38.5 117zM201 -182q0 -31 7 -61.5t31.5 -56.5t75 -42t136.5 -16q102 0 169.5 14t108.5 43t58.5 71t17.5 95q0 47 -11.5 75.5t-42 44t-84 20.5t-137.5 5q-80 0 -141 2t-108 11 q-35 -47 -57.5 -94.5t-22.5 -110.5zM303 672q0 -82 8 -132.5t27.5 -78t52.5 -36.5t80 -9t79 9t51.5 36.5t27.5 78t8 132.5t-8 131t-27.5 75.5t-51.5 36t-79 9.5t-80 -9.5t-52.5 -36t-27.5 -75.5t-8 -131z" />
<glyph unicode="h" horiz-adv-x="1222" d="M33 1374v39l327 129h48v-581l-33 -209l4 -2q90 117 176 184t203 67q74 0 127 -25.5t87 -70.5t50 -106.5t16 -130.5v-592h131v-76h-475v76h135v647q0 80 -30.5 111.5t-106.5 31.5t-138 -39t-146 -133v-618h135v-76h-496v76h152v1235z" />
<glyph unicode="i" horiz-adv-x="595" d="M33 821v39l338 129h47v-913h145v-76h-516v76h162v682zM156 1345.5q0 57.5 43 103.5t100 46t100 -46t43 -103.5t-43 -103.5t-100 -46t-100 46t-43 103.5z" />
<glyph unicode="j" horiz-adv-x="555" d="M-127 -291q0 49 33 81t78 32t74.5 -29t29.5 -76q0 -55 -47 -73v-9q4 0 12 -2t27 -2q68 0 98.5 50.5t30.5 164.5v912l-176 63v39l338 129h47v-1012q0 -117 -28 -197.5t-72 -131.5t-100 -74t-114 -23q-123 0 -177 48.5t-54 109.5zM156 1345.5q0 57.5 43 103.5t100 46 t100 -46t43 -103.5t-43 -103.5t-100 -46t-100 46t-43 103.5z" />
<glyph unicode="k" horiz-adv-x="1212" d="M33 1380v27l327 135h48v-999h116l297 350h-127v76h396v-76h-119l-320 -309l387 -508h131v-76h-522v76h141l-278 385h-102v-385h135v-76h-496v76h152v1229z" />
<glyph unicode="l" horiz-adv-x="595" d="M33 1374v39l338 129h47v-1466h145v-76h-516v76h162v1235z" />
<glyph unicode="m" horiz-adv-x="1783" d="M33 821v39l327 129h41l-26 -237l4 -2q41 51 82 97t86 80t93 54t101 20q115 0 175.5 -62t84.5 -157q78 94 164 156.5t183 62.5q72 0 123 -25.5t83.5 -69.5t49 -104.5t16.5 -127.5v-598h131v-76h-469v76h129v653q0 78 -31.5 107.5t-105.5 29.5q-106 0 -260 -153v-637h131 v-76h-469v76h129v653q0 78 -32 107.5t-105 29.5q-61 0 -118.5 -41t-141.5 -131v-618h129v-76h-490v76h152v682z" />
<glyph unicode="n" horiz-adv-x="1222" d="M33 821v39l327 129h41l-26 -237l4 -2q90 117 176 184t203 67q150 0 215 -93t65 -240v-592h131v-76h-475v76h135v647q0 80 -30.5 111.5t-106.5 31.5t-138 -39t-146 -133v-618h135v-76h-496v76h152v682z" />
<glyph unicode="o" d="M55 493.5q0 96.5 37 187.5t101.5 162.5t152.5 114.5t192.5 43t193.5 -43t153.5 -114.5t100.5 -162.5t36 -187.5t-36 -187.5t-100.5 -162.5t-153.5 -115.5t-193.5 -44t-192.5 44t-152.5 115.5t-101.5 162.5t-37 187.5zM283 494q0 -135 21.5 -218t56 -127.5t81.5 -58.5 t96.5 -14t96.5 14t82 58.5t56.5 127t21.5 218.5q0 137 -21.5 219t-57.5 126t-82 57t-95.5 13t-95.5 -13t-81.5 -57t-57 -126t-21.5 -219z" />
<glyph unicode="p" horiz-adv-x="1191" d="M33 821v39l327 129h41l-26 -223l4 -2q37 45 77 88t86 76t98 53t116 20q82 0 150.5 -36.5t118.5 -103t79 -160t29 -203.5q0 -119 -35 -214.5t-95.5 -162t-142.5 -102t-178 -35.5q-78 0 -146.5 28.5t-127.5 87.5v-454h176v-76h-537v76h152v1112zM408 178q45 -45 101 -74.5 t126 -29.5q55 0 102 14t82 47q88 86 88 363q0 137 -18.5 222t-63.5 120q-29 23 -64.5 28.5t-60.5 5.5q-51 0 -90 -12t-72.5 -34.5t-64.5 -54.5l-65 -71v-524z" />
<glyph unicode="q" horiz-adv-x="1130" d="M59 487q0 119 34 214.5t93.5 162t141.5 102t178 35.5q82 0 169 -33.5t173 -136.5l98 158h47v-1343h152v-76h-537v76h176v358l33 215l-4 2q-68 -111 -151.5 -174t-198.5 -63q-90 0 -165 36.5t-128 103t-82 159.5t-29 204zM285 469q0 -137 24.5 -222t69.5 -120 q29 -23 58.5 -29t54.5 -6q49 0 89 14.5t74.5 40t65.5 60.5t63 76v520q-53 45 -111.5 67.5t-125.5 22.5q-111 0 -174 -62q-88 -86 -88 -362z" />
<glyph unicode="r" horiz-adv-x="874" d="M33 821v39l327 129h41l-26 -248l4 -2q68 135 155 197.5t173 62.5q72 0 114.5 -46t42.5 -105.5t-39 -101t-94 -41.5q-61 0 -91 32.5t-30 77.5q0 29 12.5 46.5t20.5 25.5l-2 6q-53 -6 -116.5 -65.5t-116.5 -163.5v-588h180v-76h-541v76h152v682z" />
<glyph unicode="s" horiz-adv-x="913" d="M76 350l55 12q45 -84 86 -139t83 -88t89 -46t105 -13q104 0 144 39t40 98q0 41 -14.5 68.5t-42 48t-69.5 36t-95 31.5q-119 35 -190.5 72t-110.5 78t-52.5 87t-13.5 99q0 66 27.5 116t73 84t104.5 51t123 17q76 0 137 -22.5t109 -61.5l45 72h49l18 -297l-49 -12 q-37 70 -75 114t-76.5 68.5t-77.5 33.5t-80 9q-174 0 -174 -123q0 -68 45 -99.5t135 -59.5q121 -37 202 -72t130 -76t69.5 -91t20.5 -118q0 -59 -23.5 -111.5t-68.5 -90t-110.5 -59t-149.5 -21.5q-104 0 -173 30.5t-131 77.5l-36 -92h-52z" />
<glyph unicode="t" horiz-adv-x="690" d="M29 864v56l153 38l135 377h70v-366h246v-105h-246v-661q0 -47 23.5 -69.5t93.5 -22.5q45 0 76.5 7t60.5 15l25 -43q-47 -41 -109.5 -73.5t-153.5 -32.5q-70 0 -113.5 22.5t-68 60t-34 91t-9.5 114.5v592h-149z" />
<glyph unicode="u" horiz-adv-x="1222" d="M33 893v76h360v-707q0 -80 31 -111.5t106 -31.5q39 0 72 9t66.5 29.5t68.5 53.5t78 80v602h-156v76h365v-785l166 -55v-47l-328 -94h-41l27 239l-4 2q-90 -111 -176 -178t-203 -67q-150 0 -215.5 93t-65.5 240v576h-151z" />
<glyph unicode="v" horiz-adv-x="1124" d="M12 893v76h502v-76h-152l265 -711l245 711h-135v76h375v-76h-111l-372 -909h-121l-379 909h-117z" />
<glyph unicode="w" horiz-adv-x="1671" d="M12 893v76h502v-76h-152l218 -664l192 664h-115v76h449v-76h-123l229 -664l218 664h-136v76h365v-76h-111l-356 -909h-94l-264 757l-261 -757h-108l-336 909h-117z" />
<glyph unicode="x" horiz-adv-x="1097" d="M12 0v76h121l313 405l-311 412h-102v76h510v-76h-150l209 -313l205 313h-133v76h364v-76h-100l-289 -377l328 -440h102v-76h-510v76h150l-230 344l-225 -344h133v-76h-385z" />
<glyph unicode="y" horiz-adv-x="1103" d="M12 893v76h502v-76h-152l252 -717l248 717h-135v76h365v-76h-111l-434 -1090q-29 -72 -59.5 -121t-65.5 -77.5t-75 -41t-87 -12.5q-78 0 -125 42t-47 104q0 49 32 85t79 36t78.5 -30t31.5 -81q0 -41 -28 -69l2 -9q61 2 103 54.5t81 156.5l57 160h-37l-358 893h-117z" />
<glyph unicode="z" horiz-adv-x="948" d="M41 0v51l602 846l-336 -25l-155 -247h-46l41 344h740v-47l-604 -850l395 24l168 289h49l-41 -385h-813z" />
<glyph unicode="{" horiz-adv-x="753" d="M41 575v66l139 10q80 6 100.5 42t20.5 83q0 29 -17 90l-37 130l-36.5 136.5t-17.5 108.5q0 74 29.5 124t91 81t157.5 43t229 12v-65q-98 -16 -159.5 -30.5t-93 -30t-41 -36t-5.5 -49.5l70 -450q4 -25 4 -47q0 -60 -29 -101q-39 -55 -139 -78v-10q168 -39 168 -178 q0 -22 -4 -47l-70 -438q-4 -29 5.5 -49.5t41 -36t93 -29.5t159.5 -31v-65q-266 0 -386.5 60.5t-120.5 211.5q0 43 17 106l37 126l37 121q17 56 17 85q0 47 -20.5 83t-100.5 42z" />
<glyph unicode="|" horiz-adv-x="452" d="M170 -270v1771h113v-1771h-113z" />
<glyph unicode="}" horiz-adv-x="753" d="M53 -205q98 16 159.5 30.5t93.5 30t41 36t5 49.5l-69 438q-31 180 163 225v10q-100 23 -139 78.5t-24 147.5l69 450q4 29 -5 49.5t-41 36t-93 29.5t-160 31v65q133 0 229.5 -12t158 -43t91 -81t29.5 -124q0 -41 -17.5 -108.5l-36.5 -136.5l-37 -130q-17 -61 -17 -90 q0 -47 20.5 -83t99.5 -42l140 -10v-66l-140 -10q-80 -6 -100 -42t-20 -83q0 -29 17 -85l37 -121l37 -126q17 -62 17 -106q0 -152 -121 -212t-387 -60v65z" />
<glyph unicode="~" horiz-adv-x="950" d="M66 481q66 166 130 248t160 82q66 0 150 -39l112 -49q27 -12 46.5 -14t37 7t36 29.5t40.5 53.5l47 67l60 -28q-66 -166 -130.5 -247t-160.5 -81q-63 0 -150 37l-112 49q-27 12 -45.5 14t-36 -6t-35.5 -28.5t-43 -55.5l-47 -67z" />
<glyph unicode="&#xa1;" horiz-adv-x="569" d="M139 858q0 57 44 100t101.5 43t101.5 -43t44 -100t-44 -101t-101.5 -44t-101.5 44t-44 101zM141 -262q0 31 6 67l89 512v234h98v-234l88 -512q6 -37 6 -67q0 -49 -13.5 -83t-35 -55.5t-46 -30.5t-49 -9t-49 9t-46 30.5t-35 55.5t-13.5 83z" />
<glyph unicode="&#xa2;" horiz-adv-x="886" d="M53 455q0 88 31 172t89 149.5t143 105.5t196 40q70 0 131 -17l105 236h92l-119 -271q43 -29 67.5 -68.5t24.5 -92.5q0 -47 -31.5 -83t-87.5 -36q-49 0 -82 33l-217 -496q33 -16 73 -23.5t87 -7.5q70 0 120 13.5t103 33.5l23 -51q-57 -41 -133 -74.5t-181 -33.5 q-76 0 -143 22l-96 -219h-94l112 256q-104 66 -158.5 177.5t-54.5 234.5zM274 473q0 -104 13.5 -172t42.5 -111l237 541q18 41 39 55.5t49 22.5v8q-20 8 -47.5 13.5t-77.5 5.5q-57 0 -104 -14.5t-81 -54.5t-52.5 -110.5t-18.5 -183.5z" />
<glyph unicode="&#xa3;" horiz-adv-x="1056" d="M4 137q0 78 66.5 131.5t171.5 53.5q20 0 44.5 -4.5t53.5 -10.5q-10 53 -32 111l-44 117h-174v100h139q-16 49 -26 96t-10 94q0 86 32.5 158t89 123t133 78.5t164.5 27.5q68 0 126.5 -17t101.5 -49t68.5 -76t25.5 -97q0 -66 -34 -108t-93 -42q-51 0 -83 34t-32 81 q0 51 33 86t92 35v8q-23 20 -58.5 30.5t-99.5 10.5q-133 0 -194.5 -80t-61.5 -215q0 -43 3.5 -88t7.5 -90h340v-100h-330l15 -133q7 -60 7 -97q0 -20 -2 -29l105 -33l100 -33q47 -15 88 -25.5t68 -10.5q37 0 58.5 8t36.5 27.5t26.5 52.5t25.5 80h54q0 -180 -49.5 -268 t-163.5 -88q-51 0 -98.5 17t-93.5 43t-91 57.5t-90 58.5q-33 -84 -97.5 -131t-144.5 -47q-72 0 -123 39.5t-51 113.5zM90 137q0 -35 24.5 -55.5t65.5 -20.5q53 0 101.5 37t60.5 105q-57 29 -115 28q-55 0 -96 -22.5t-41 -71.5z" />
<glyph unicode="&#xa4;" horiz-adv-x="1105" d="M25 406v100h145q-4 23 -4 44v44v22q0 12 2 25h-143v100h157q23 96 73 182.5t123 151t165 103.5t198 39q147 0 237.5 -62.5t90.5 -173.5q0 -70 -40 -110t-99 -40q-53 0 -87 34t-34 81q0 55 33 90t92 39v8q-20 16 -58 29.5t-110 13.5q-63 0 -123.5 -15t-109 -58t-83 -118 t-47.5 -194h334v-100h-342v-47v-45q0 -23 2 -43h340v-100h-331q12 -98 39.5 -161t65.5 -98.5t85 -49t100 -13.5q111 0 182.5 45t127.5 113l61 -47q-27 -39 -62.5 -77t-84 -68t-106.5 -48t-132 -18q-94 0 -173 32.5t-142.5 90t-107.5 134t-69 165.5h-165z" />
<glyph unicode="&#xa5;" horiz-adv-x="1150" d="M20 1133v65h508v-65l-151 -46l270 -489l230 500l-156 35v65h418v-65l-138 -35l-233 -436h266v-101h-319l-19 -35v-100h338v-100h-338v-226l170 -34v-66h-549v66l170 34v226h-344v100h344v78l-32 57h-312v101h254l-245 425z" />
<glyph unicode="&#xa6;" horiz-adv-x="452" d="M170 -270v833h113v-833h-113zM170 700v801h113v-801h-113z" />
<glyph unicode="&#xa7;" horiz-adv-x="1163" d="M76 791q0 59 19.5 105t50 81t70.5 57.5t81 36.5q-2 14 -3 28.5t1 30.5q2 74 31.5 129.5t78 92.5t109.5 55t125 18q147 0 225 -68.5t78 -160.5q0 -70 -41 -112t-94 -42t-89 37t-36 84q0 57 31.5 89t85.5 40v8q-20 16 -51 25.5t-87 9.5q-98 0 -145 -41t-51 -112v-14 q0 -30 7 -58q9 -35 39 -76t85 -95t147 -132q102 -86 169 -150.5t106 -118t54 -101.5t15 -101q0 -61 -19 -109.5t-51 -83t-72 -57.5t-81 -37q2 -13 2 -27v-30q-2 -74 -32.5 -129.5t-79.5 -92t-111.5 -55t-128.5 -18.5q-72 0 -129 19.5t-97 52t-61.5 75.5t-21.5 90 q0 72 42 116t99 44q55 0 92 -38t37 -87q0 -123 -119 -135v-8q23 -16 53.5 -27.5t82.5 -11.5q102 0 151 41t53 113q0 7 1 13q0 30 -8 58q-9 35 -37.5 76t-84 95.5t-147.5 131.5q-102 86 -169 151.5t-106 119t-54 103t-15 102.5zM240 854q0 -39 12 -72.5t46 -76.5t95 -102 l160 -146q129 -117 195.5 -189.5t93.5 -132.5q82 45 82 139q0 37 -13.5 71t-48.5 76t-95 100l-157 145q-131 117 -196.5 189.5t-94.5 129.5q-79 -43 -79 -131z" />
<glyph unicode="&#xa8;" horiz-adv-x="995" d="M156 1286q0 51 40 91t91 40t91 -40t40 -91t-40 -91t-91 -40t-91 40t-40 91zM578 1286q0 51 39.5 91t91 40t91.5 -40t40 -91t-40 -91t-91.5 -40t-91 40t-39.5 91z" />
<glyph unicode="&#xa9;" horiz-adv-x="1550" d="M72 698.5q0 137.5 50 268.5t142 232t220 163.5t282 62.5t285 -62.5t226 -163.5t148.5 -232t53.5 -268.5t-52.5 -265.5t-147.5 -228.5t-225 -160.5t-288 -60t-286 60t-219 160.5t-140 228.5t-49 265.5zM168 698q0 -125 42 -239.5t120 -202.5t188.5 -139t247.5 -51 t250.5 51t194.5 139t126 202.5t45 239.5q0 127 -46 244t-128 206t-195.5 142t-246.5 53q-135 0 -244.5 -53t-188.5 -142t-122 -206t-43 -244zM356 705q0 84 33 162.5t90.5 139t137 97.5t171.5 37q78 0 127.5 -21.5t85.5 -50.5l33 64h49l27 -320l-45 -12q-43 80 -78 129 t-66.5 76.5t-63.5 37t-66 9.5q-51 0 -89 -16.5t-65 -58.5t-40 -111.5t-13 -174.5q0 -190 59 -263t172 -73q86 0 150.5 41t105.5 103l57 -39q-53 -90 -138 -143.5t-202 -53.5q-94 0 -173.5 35t-137 95.5t-89.5 140.5t-32 170z" />
<glyph unicode="&#xaa;" horiz-adv-x="976" d="M100 737q0 113 93.5 174.5t259.5 98.5l135 28v111q0 55 -14.5 91t-43 55.5t-68.5 26.5t-93 7q-41 0 -69 -7t-44 -13v-9q41 -14 60.5 -43.5t19.5 -66.5q0 -41 -30 -70.5t-79 -29.5q-53 0 -83.5 33.5t-30.5 87t31.5 94.5t81.5 67.5t109.5 39.5t115.5 13q80 0 140 -17 t102 -61t63.5 -119t21.5 -192v-313q0 -41 25.5 -53.5t107.5 -16.5v-45q-20 -14 -67 -35.5t-105 -21.5q-68 0 -109.5 35t-41.5 98v21q-20 -29 -49 -56.5t-64 -50.5t-76 -37t-84 -14q-98 0 -156.5 51t-58.5 139zM293 774q0 -57 26.5 -78.5t67.5 -21.5q63 0 110.5 27.5 t90.5 74.5v203l-135 -47q-49 -16 -80 -31.5t-49.5 -33t-24.5 -40t-6 -53.5z" />
<glyph unicode="&#xab;" d="M84 471v70l373 338l57 -52l-209 -376l209 -291l-57 -54zM532 471v70l414 385l58 -52l-244 -415l244 -342l-58 -54z" />
<glyph unicode="&#xac;" horiz-adv-x="778" d="M-139 -205q0 63 34.5 101t94.5 38q55 0 93 -34.5t38 -87.5q0 -41 -22.5 -66t-59.5 -39v-8q31 -10 67 -10q39 0 71 9t54.5 34.5t35 71.5t12.5 120v1379l-201 40v66h622v-66l-184 -40v-1242q0 -133 -35 -220t-90 -137t-122.5 -70.5t-135.5 -20.5q-133 0 -202.5 54 t-69.5 128z" />
<glyph unicode="&#xad;" horiz-adv-x="739" d="M143 485v164h453v-164h-453z" />
<glyph unicode="&#xae;" horiz-adv-x="1062" d="M39 997q0 102 39 191.5t106.5 156t157.5 105.5t190 39q102 0 191.5 -39t156 -105.5t105.5 -155.5t39 -192q0 -100 -39 -190t-105.5 -156.5t-155.5 -105.5t-192 -39q-100 0 -190 39t-157.5 105.5t-106.5 156.5t-39 190zM121 997.5q0 -92.5 31.5 -170t87 -133t131 -87.5 t161.5 -32t162 32t131.5 87.5t87 133t31.5 170t-31.5 169t-87 133t-131.5 88t-162 31.5t-161.5 -31.5t-131 -88t-87 -133t-31.5 -169zM283 752v39l69 16v393l-69 19v36h262q86 0 144.5 -34.5t58.5 -104.5q0 -57 -42 -86t-102 -39v-6q39 -4 66.5 -22.5t50.5 -61.5l49 -98 l39 -12v-39h-137q-18 0 -26.5 9t-12.5 21q-23 63 -38 99.5t-28.5 54.5t-29 22.5t-39.5 4.5h-17v-156l60 -16v-39h-258zM481 1024h29q66 0 86 15.5t20 72.5q0 53 -19 66.5t-77 13.5h-39v-168z" />
<glyph unicode="&#xaf;" horiz-adv-x="995" d="M221 1198v137h551v-137h-551z" />
<glyph unicode="&#x2c9;" horiz-adv-x="995" d="M221 1198v137h551v-137h-551z" />
<glyph unicode="&#xb0;" horiz-adv-x="626" d="M51 1169q0 53 21.5 99.5t57.5 81t84 55t99 20.5q53 0 100.5 -20.5t83 -55t57 -80.5t21.5 -100q0 -51 -21.5 -98t-57 -82t-82.5 -55.5t-101 -20.5q-51 0 -99 20.5t-84 55.5t-57.5 82t-21.5 98zM160 1169q0 -86 45 -125.5t108.5 -39.5t108.5 39.5t45 125.5t-45 126 t-108.5 40t-108.5 -40t-45 -126z" />
<glyph unicode="&#xb1;" horiz-adv-x="1835" d="M29 864v56l170 38v144q0 119 37.5 201.5t97 135t131.5 76t139 23.5q47 0 92 -11t83 -32.5t68 -51.5t44 -67q59 98 152.5 140.5t185.5 42.5q80 0 145.5 -24t106.5 -65l129 72h47v-1466h145v-76h-475v76h121v1132q-20 -4 -31 -4q-47 0 -78.5 31t-31.5 80q0 45 27.5 74.5 t68.5 37.5v5q-16 16 -56 26t-90 10q-111 0 -168 -60t-57 -208v-231h236v-105h-236v-788h152v-76h-482v76h121v788h-415v-788h151v-76h-512v76h152v788h-170zM408 969h415v135q0 23 1 42t3 40q-18 -10 -47 -10q-47 0 -78.5 30.5t-31.5 79.5q0 45 25.5 76t70.5 37v8 q-16 16 -48 28.5t-87 12.5q-121 0 -172 -56.5t-51 -193.5v-229z" />
<glyph unicode="&#xb2;" horiz-adv-x="727" d="M16 535v71q131 80 219.5 143.5t140.5 121t73.5 114.5t21.5 127t-44 121t-134 51t-126 -46t-36 -99q0 -29 8 -53.5t21 -43.5l-39 -30q-41 31 -59.5 74.5t-18.5 95.5q0 47 19.5 91t57.5 77.5t93 54t127 20.5q61 0 115.5 -20.5t95.5 -57t64.5 -88t23.5 -112.5 q0 -86 -40 -159t-104.5 -134t-144.5 -111.5t-160 -91.5l404 43l53 111h51l-24 -270h-658z" />
<glyph unicode="&#xb3;" horiz-adv-x="684" d="M18 721q0 47 29 76.5t66 29.5t62.5 -24.5t25.5 -59t-21.5 -59.5t-64.5 -35v-8q10 -12 51 -27.5t108 -15.5q92 0 144.5 44t52.5 136q0 94 -58.5 134t-138.5 40q-27 0 -47 -4t-37 -8l-16 53q223 86 223 207q0 61 -36.5 90t-96.5 29q-55 0 -92 -26.5t-37 -86.5 q0 -14 3 -31.5t7 -29.5l-39 -17q-14 16 -25 43t-11 52q0 88 66.5 145t178.5 57q117 0 176.5 -54t59.5 -130q0 -66 -46 -111t-112 -67v-2q47 -4 93 -23.5t81 -52.5t56.5 -80t21.5 -108.5t-24.5 -112.5t-68.5 -88t-103.5 -57.5t-126.5 -20.5q-76 0 -132.5 17.5t-94.5 46 t-57.5 64.5t-19.5 75z" />
<glyph unicode="&#xb4;" horiz-adv-x="995" d="M309 1157l90 60l158 180q29 33 57.5 45t55.5 12q55 0 78 -39q18 -29 18 -59.5t-22.5 -62t-77.5 -54.5l-224 -90l-92 -59z" />
<glyph unicode="&#xb5;" horiz-adv-x="1222" d="M33 893v76h360v-707q0 -80 31 -111.5t106 -31.5q39 0 72 9t66.5 29.5t68.5 53.5t78 80v602h-156v76h365v-785l166 -55v-47l-328 -94h-41l27 239l-4 2q-88 -109 -174 -177t-195 -68q-74 0 -121 26.5t-94 93.5l-6 -4l100 -254q25 -61 25 -106q0 -61 -33 -95t-76 -34 q-51 0 -91 36t-40 117q0 25 6 60l39 221v848h-151z" />
<glyph unicode="&#x3bc;" horiz-adv-x="1222" d="M33 893v76h360v-707q0 -80 31 -111.5t106 -31.5q39 0 72 9t66.5 29.5t68.5 53.5t78 80v602h-156v76h365v-785l166 -55v-47l-328 -94h-41l27 239l-4 2q-88 -109 -174 -177t-195 -68q-74 0 -121 26.5t-94 93.5l-6 -4l100 -254q25 -61 25 -106q0 -61 -33 -95t-76 -34 q-51 0 -91 36t-40 117q0 25 6 60l39 221v848h-151z" />
<glyph unicode="&#xb6;" horiz-adv-x="1273" d="M41 1018q0 94 37 166.5t100.5 123t145.5 76t174 25.5h710v-66l-192 -40v-1166q0 -119 -44 -200.5t-109.5 -132t-141.5 -72t-137 -21.5q-135 0 -222.5 59.5t-87.5 180.5q0 57 39 97t99 40q57 0 95 -37t38 -86q0 -61 -36 -94t-95 -39v-8q14 -10 48 -17.5t66 -7.5 q188 0 189 207v645l-125 -22q-68 -12 -127 -13q-100 0 -179 30t-133.5 84t-83 128t-28.5 160zM346 1020q0 -84 10.5 -141.5t34 -92t63.5 -49t101 -14.5h31q16 0 32 2l99 8v580h-135q-59 0 -103.5 -10.5t-74 -42t-44 -89t-14.5 -151.5zM750 -168l8 -8q70 47 112.5 111.5 t42.5 179.5v1198h-94v-1286q0 -59 -17 -109.5t-52 -85.5z" />
<glyph unicode="&#xb7;" horiz-adv-x="528" d="M119 577.5q0 57.5 44 101.5t101.5 44t101.5 -44t44 -101.5t-44 -100.5t-101.5 -43t-101.5 43t-44 100.5z" />
<glyph unicode="&#x2219;" horiz-adv-x="528" d="M119 577.5q0 57.5 44 101.5t101.5 44t101.5 -44t44 -101.5t-44 -100.5t-101.5 -43t-101.5 43t-44 100.5z" />
<glyph unicode="&#xb8;" horiz-adv-x="995" d="M297 -418l20 45q35 -10 72 -19t84 -9q68 0 98.5 17t30.5 52t-35 57.5t-141 32.5l-14 23l127 219h88l-97 -127q115 -25 162 -75t47 -113q0 -70 -63.5 -115t-165.5 -45q-68 0 -128 20.5t-85 36.5z" />
<glyph unicode="&#xb9;" horiz-adv-x="550" d="M27 535v61l170 33v620h-166v56l268 120h76v-796l162 -33v-61h-510z" />
<glyph unicode="&#xba;" horiz-adv-x="915" d="M41 987q0 82 31.5 161t89 140.5t134.5 99t167 37.5t168 -37.5t134 -99t89 -140.5t33 -161q0 -84 -33 -163t-89 -140t-134 -99t-168 -38t-167 38t-134.5 99t-89 140t-31.5 163zM250 987q0 -117 18.5 -187.5t48 -108.5t67.5 -49t79 -11q43 0 82 11t68.5 49t48 108.5 t18.5 187.5q0 119 -18.5 188.5t-49 106.5t-69.5 47t-80 10t-79 -11t-67.5 -48t-48 -106.5t-18.5 -186.5z" />
<glyph unicode="&#xbb;" d="M74 115l243 415l-243 342l57 54l414 -408v-69l-414 -386zM563 162l209 377l-209 290l58 54l372 -365v-69l-372 -338z" />
<glyph unicode="&#xbc;" horiz-adv-x="1802" d="M27 535v61l170 33v620h-166v56l268 120h76v-796l162 -33v-61h-510zM426 0l971 1407h114l-970 -1407h-115zM1024 57v101l432 553h156v-545h135v-109h-135v-221h-172v221h-416zM1114 166h326v377z" />
<glyph unicode="&#xbd;" horiz-adv-x="1828" d="M27 535v61l170 33v620h-166v56l268 120h76v-796l162 -33v-61h-510zM412 0l970 1407h115l-971 -1407h-114zM1069 -92q131 80 219 143.5t140.5 120.5t74 114.5t21.5 127t-44 121t-134 51.5q-45 0 -76 -13.5t-50.5 -34t-27.5 -47t-8 -53t8 -51.5t20 -43l-38 -31 q-41 31 -59.5 75t-18.5 95q0 47 19.5 91t57 78t93 54.5t127.5 20.5q61 0 115.5 -20.5t95.5 -57.5t64.5 -88t23.5 -112q0 -86 -40 -159t-104.5 -134.5t-144.5 -111.5t-160 -91l404 43l53 110h51l-25 -270h-657v72z" />
<glyph unicode="&#xbe;" horiz-adv-x="1894" d="M27 721q0 47 28.5 76.5t65.5 29.5t62.5 -24.5t25.5 -59t-21.5 -59.5t-64.5 -35v-8q10 -12 51 -27.5t109 -15.5q92 0 144 44t52 136q0 94 -58.5 134t-137.5 40q-27 0 -47.5 -4t-36.5 -8l-17 53q223 86 224 207q0 61 -37 90t-97 29q-55 0 -92 -26.5t-37 -86.5 q0 -14 3.5 -31.5t7.5 -29.5l-39 -17q-14 16 -25.5 43t-11.5 52q0 88 66.5 145t179.5 57q117 0 176 -54t59 -130q0 -66 -46 -111t-112 -67v-2q47 -4 93.5 -23.5t81 -52.5t56 -80t21.5 -108.5t-24.5 -112.5t-68.5 -88t-103.5 -57.5t-126.5 -20.5q-76 0 -132.5 17.5t-94 46 t-57 64.5t-19.5 75zM436 0l971 1407h115l-971 -1407h-115zM1024 57v101l432 553h156v-545h135v-109h-135v-221h-172v221h-416zM1114 166h326v377z" />
<glyph unicode="&#xbf;" horiz-adv-x="917" d="M98 -98q0 80 27 136t73 99t111 79l142 79q55 31 70.5 55.5t15.5 55.5q0 41 -39 58t-158 19v54q23 10 56.5 20t78.5 10q74 0 125 -45t51 -121q0 -43 -17.5 -80.5t-47 -72.5t-66.5 -68l-76 -67q-39 -33 -64.5 -60.5t-41.5 -54.5t-23.5 -57.5t-7.5 -71.5q0 -59 17.5 -98 t49.5 -61.5t75 -33t94 -10.5q111 0 172 51.5t63 130.5h-8q-16 -23 -34.5 -34t-51.5 -11q-41 0 -75 30t-34 77t33 78.5t82 31.5q84 0 124 -57t40 -135q0 -47 -22.5 -94t-66.5 -86t-110.5 -63.5t-154.5 -24.5q-98 0 -173 26.5t-125 73.5t-77 108.5t-27 133.5zM346 858 q0 57 44 100t101.5 43t101.5 -43t44 -100t-44 -101t-101.5 -44t-101.5 44t-44 101z" />
<glyph unicode="&#xc0;" horiz-adv-x="1624" d="M27 0v66l180 40l581 1324h89l553 -1324l167 -40v-66h-596v66l181 40l-168 422h-500l-172 -422l178 -40v-66h-493zM541 1751q0 31 16 57q25 41 78 41q27 0 55.5 -13t57.5 -46l157 -180l90 -60l-41 -67l-92 59l-223 90q-53 23 -75.5 54.5t-22.5 64.5zM553 623h424l-209 526 z" />
<glyph unicode="&#xc1;" horiz-adv-x="1624" d="M27 0v66l180 40l581 1324h89l553 -1324l167 -40v-66h-596v66l181 40l-168 422h-500l-172 -422l178 -40v-66h-493zM553 623h424l-209 526zM618 1550l91 60l157 180q29 33 57.5 45t55.5 12q55 0 78 -39q18 -29 18 -59.5t-22.5 -62t-77.5 -54.5l-223 -90l-93 -59z" />
<glyph unicode="&#xc2;" horiz-adv-x="1624" d="M27 0v66l180 40l581 1324h89l553 -1324l167 -40v-66h-596v66l181 40l-168 422h-500l-172 -422l178 -40v-66h-493zM522 1548q92 92 136 161t67 113t36 65.5t44 21.5t45 -21.5t36.5 -65.5t67.5 -112t138 -162l-37 -45l-248 162l-248 -162zM553 623h424l-209 526z" />
<glyph unicode="&#xc3;" horiz-adv-x="1624" d="M27 0v66l180 40l581 1324h89l553 -1324l167 -40v-66h-596v66l181 40l-168 422h-500l-172 -422l178 -40v-66h-493zM442 1556q59 123 123 189.5t146 66.5q53 0 114 -30l117 -56q22 -11 41 -11q16 0 29 8q29 17 69 69l41 49l49 -31q-59 -123 -122.5 -189.5t-145.5 -66.5 q-53 0 -115 31l-116 55q-22 11 -41 12q-16 0 -29 -8q-29 -17 -70 -69l-40 -49zM553 623h424l-209 526z" />
<glyph unicode="&#xc4;" horiz-adv-x="1624" d="M27 0v66l180 40l581 1324h89l553 -1324l167 -40v-66h-596v66l181 40l-168 422h-500l-172 -422l178 -40v-66h-493zM492 1679.5q0 51.5 39.5 91t91 39.5t91.5 -39.5t40 -91t-40 -91.5t-91.5 -40t-91 40t-39.5 91.5zM553 623h424l-209 526zM913 1679.5q0 51.5 40 91 t91.5 39.5t91.5 -39.5t40 -91t-40 -91.5t-91.5 -40t-91.5 40t-40 91.5z" />
<glyph unicode="&#xc5;" horiz-adv-x="1624" d="M27 0v66l180 40l555 1262q-70 23 -117 81t-47 130q0 45 19.5 85t51 70.5t72.5 48t86 17.5t86 -17.5t73 -48t51.5 -70.5t19.5 -85q0 -72 -45 -128t-111 -81l529 -1264l167 -40v-66h-596v66l181 40l-168 422h-500l-172 -422l178 -40v-66h-493zM553 623h424l-209 526z M700 1579q0 -72 36 -107.5t91.5 -35.5t91 35.5t35.5 107.5t-35.5 107.5t-91 35.5t-91.5 -35.5t-36 -107.5z" />
<glyph unicode="&#xc6;" horiz-adv-x="2201" d="M27 0v66l172 38l868 1205l-178 34v66h1124l49 -395l-43 -10l-202 303l-478 36v-581l254 10l88 207h50v-500h-50l-88 191l-254 10v-608l553 30l219 369l50 -10l-62 -461h-1190v66l193 40v404h-481l-277 -404l176 -40v-66h-493zM684 604h418v606z" />
<glyph unicode="&#xc7;" horiz-adv-x="1372" d="M82 704.5q0 137.5 50 267.5t140 230.5t213 161.5t271 61q70 0 124 -11t99 -29.5t81 -43t66 -51.5l54 119h51l49 -504l-47 -12q-63 129 -119.5 212t-111 131t-111.5 65.5t-125 17.5q-102 0 -180 -27.5t-131.5 -98.5t-81 -193.5t-27.5 -315.5q0 -170 28.5 -284.5t85 -183.5 t139.5 -97.5t192 -28.5q156 0 267 73t183 185l70 -49q-86 -147 -213 -228t-307 -87l-84 -111q115 -25 161.5 -75t46.5 -113q0 -70 -63.5 -115t-165.5 -45q-68 0 -128 20.5t-85 36.5l21 45q35 -10 71.5 -19t83.5 -9q68 0 98.5 17t30.5 52t-34.5 57.5t-141.5 32.5l-14 23 l119 205q-141 10 -257 72.5t-197 159.5t-126 223t-45 263.5z" />
<glyph unicode="&#xc8;" horiz-adv-x="1370" d="M78 0v66l192 40v1197l-192 40v66h1104l49 -395l-43 -10l-203 296l-477 37v-577l258 16l84 223h49v-544h-49l-84 211l-258 14v-602l553 31l219 362l49 -10l-61 -461h-1190zM418 1751q0 31 16 57q25 41 78 41q27 0 55.5 -13t57.5 -46l157 -180l90 -60l-41 -67l-92 59 l-223 90q-53 23 -75.5 54.5t-22.5 64.5z" />
<glyph unicode="&#xc9;" horiz-adv-x="1370" d="M78 0v66l192 40v1197l-192 40v66h1104l49 -395l-43 -10l-203 296l-477 37v-577l258 16l84 223h49v-544h-49l-84 211l-258 14v-602l553 31l219 362l49 -10l-61 -461h-1190zM496 1550l90 60l157 180q29 33 57.5 45t55.5 12q55 0 78 -39q18 -29 18 -59.5t-22.5 -62 t-77.5 -54.5l-223 -90l-92 -59z" />
<glyph unicode="&#xca;" horiz-adv-x="1370" d="M78 0v66l192 40v1197l-192 40v66h1104l49 -395l-43 -10l-203 296l-477 37v-577l258 16l84 223h49v-544h-49l-84 211l-258 14v-602l553 31l219 362l49 -10l-61 -461h-1190zM399 1548q92 92 136.5 161t67 113t35.5 65.5t44 21.5t45 -21.5t36.5 -65.5t68 -112t137.5 -162 l-37 -45l-248 162l-248 -162z" />
<glyph unicode="&#xcb;" horiz-adv-x="1370" d="M78 0v66l192 40v1197l-192 40v66h1104l49 -395l-43 -10l-203 296l-477 37v-577l258 16l84 223h49v-544h-49l-84 211l-258 14v-602l553 31l219 362l49 -10l-61 -461h-1190zM342 1679.5q0 51.5 40 91t91 39.5t91 -39.5t40 -91t-40 -91.5t-91 -40t-91 40t-40 91.5z M764 1679.5q0 51.5 40 91t91 39.5t91 -39.5t40 -91t-40 -91.5t-91 -40t-91 40t-40 91.5z" />
<glyph unicode="&#xcc;" horiz-adv-x="794" d="M78 0v66l201 40v1197l-201 40v66h639v-66l-201 -40v-1197l201 -40v-66h-639zM131 1751q0 31 16 57q25 41 78 41q27 0 55.5 -13t57.5 -46l158 -180l90 -60l-41 -67l-92 59l-224 90q-53 23 -75.5 54.5t-22.5 64.5z" />
<glyph unicode="&#xcd;" horiz-adv-x="794" d="M78 0v66l201 40v1197l-201 40v66h639v-66l-201 -40v-1197l201 -40v-66h-639zM209 1550l90 60l158 180q29 33 57.5 45t54.5 12q55 0 78 -39q18 -29 18.5 -59.5t-22 -62t-78.5 -54.5l-223 -90l-92 -59z" />
<glyph unicode="&#xce;" horiz-adv-x="794" d="M78 0v66l201 40v1197l-201 40v66h639v-66l-201 -40v-1197l201 -40v-66h-639zM113 1548q92 92 136 161t66.5 113t36 65.5t44 21.5t45 -21.5t37 -65.5t67.5 -112t137 -162l-37 -45l-248 162l-247 -162z" />
<glyph unicode="&#xcf;" horiz-adv-x="794" d="M55 1679.5q0 51.5 40 91t91.5 39.5t91 -39.5t39.5 -91t-39.5 -91.5t-91 -40t-91.5 40t-40 91.5zM78 0v66l201 40v1197l-201 40v66h639v-66l-201 -40v-1197l201 -40v-66h-639zM477 1679.5q0 51.5 40 91t91 39.5t91 -39.5t40 -91t-40 -91.5t-91 -40t-91 40t-40 91.5z" />
<glyph unicode="&#xd0;" horiz-adv-x="1552" d="M72 614v111h198v578l-192 40v66h649q172 0 310.5 -58.5t234.5 -156.5t147 -225t51 -264.5t-51 -264.5t-147 -225t-234.5 -156.5t-310.5 -58.5h-649v66l192 40v508h-198zM508 98h184q145 0 245.5 31t162 101.5t89.5 186t28 288.5q0 180 -30 296.5t-93.5 185t-163 95.5 t-238.5 27h-184v-584h344v-111h-344v-516z" />
<glyph unicode="&#xd1;" horiz-adv-x="1595" d="M78 0v66l192 40v1197l-192 40v66h457l733 -1008l-41 902l-213 40v66h524v-66l-176 -40v-1323h-64l-944 1298l52 -1172l217 -40v-66h-545zM432 1556q59 123 122.5 189.5t145.5 66.5q53 0 115 -30l117 -56q22 -11 41 -11q16 0 28 8q29 17 70 69l41 49l49 -31 q-59 -123 -122.5 -189.5t-145.5 -66.5q-53 0 -115 31l-116 55q-22 11 -41 12q-16 0 -29 -8q-29 -17 -70 -69l-41 -49z" />
<glyph unicode="&#xd2;" horiz-adv-x="1570" d="M82 698.5q0 137.5 50 268.5t142.5 232t220.5 163.5t281.5 62.5t284.5 -62.5t226 -163.5t148.5 -232t53.5 -268.5t-52.5 -265.5t-147.5 -228.5t-225 -160.5t-288 -60t-286 60t-219 160.5t-140 228.5t-49 265.5zM338 698q0 -319 110.5 -462.5t327.5 -143.5q106 0 191.5 35 t144.5 108.5t91 188.5t32 274q0 168 -29.5 285t-88 190.5t-144.5 107.5t-197 34q-113 0 -195.5 -34t-137 -108.5t-80 -191.5t-25.5 -283zM518 1751q0 31 17 57q25 41 77 41q27 0 55.5 -13t57.5 -46l158 -180l90 -60l-41 -67l-92 59l-224 90q-53 23 -75.5 54.5t-22.5 64.5z " />
<glyph unicode="&#xd3;" horiz-adv-x="1570" d="M82 698.5q0 137.5 50 268.5t142.5 232t220.5 163.5t281.5 62.5t284.5 -62.5t226 -163.5t148.5 -232t53.5 -268.5t-52.5 -265.5t-147.5 -228.5t-225 -160.5t-288 -60t-286 60t-219 160.5t-140 228.5t-49 265.5zM338 698q0 -319 110.5 -462.5t327.5 -143.5q106 0 191.5 35 t144.5 108.5t91 188.5t32 274q0 168 -29.5 285t-88 190.5t-144.5 107.5t-197 34q-113 0 -195.5 -34t-137 -108.5t-80 -191.5t-25.5 -283zM596 1550l90 60l158 180q29 33 57.5 45t54.5 12q55 0 78 -39q18 -29 18.5 -59.5t-22 -62t-78.5 -54.5l-223 -90l-92 -59z" />
<glyph unicode="&#xd4;" horiz-adv-x="1570" d="M82 698.5q0 137.5 50 268.5t142.5 232t220.5 163.5t281.5 62.5t284.5 -62.5t226 -163.5t148.5 -232t53.5 -268.5t-52.5 -265.5t-147.5 -228.5t-225 -160.5t-288 -60t-286 60t-219 160.5t-140 228.5t-49 265.5zM338 698q0 -319 110.5 -462.5t327.5 -143.5q106 0 191.5 35 t144.5 108.5t91 188.5t32 274q0 168 -29.5 285t-88 190.5t-144.5 107.5t-197 34q-113 0 -195.5 -34t-137 -108.5t-80 -191.5t-25.5 -283zM500 1548q92 92 136 161t66.5 113t36 65.5t44 21.5t45 -21.5t37 -65.5t67.5 -112t137 -162l-37 -45l-248 162l-247 -162z" />
<glyph unicode="&#xd5;" horiz-adv-x="1570" d="M82 698.5q0 137.5 50 268.5t142.5 232t220.5 163.5t281.5 62.5t284.5 -62.5t226 -163.5t148.5 -232t53.5 -268.5t-52.5 -265.5t-147.5 -228.5t-225 -160.5t-288 -60t-286 60t-219 160.5t-140 228.5t-49 265.5zM338 698q0 -319 110.5 -462.5t327.5 -143.5q106 0 191.5 35 t144.5 108.5t91 188.5t32 274q0 168 -29.5 285t-88 190.5t-144.5 107.5t-197 34q-113 0 -195.5 -34t-137 -108.5t-80 -191.5t-25.5 -283zM420 1556q59 123 122.5 189.5t145.5 66.5q53 0 115 -30l117 -56q22 -11 40 -11q16 0 29 8q29 17 70 69l41 49l49 -31 q-59 -123 -122.5 -189.5t-145.5 -66.5q-53 0 -115 31l-117 55q-22 11 -40 12q-16 0 -29 -8q-29 -17 -70 -69l-41 -49z" />
<glyph unicode="&#xd6;" horiz-adv-x="1570" d="M82 698.5q0 137.5 50 268.5t142.5 232t220.5 163.5t281.5 62.5t284.5 -62.5t226 -163.5t148.5 -232t53.5 -268.5t-52.5 -265.5t-147.5 -228.5t-225 -160.5t-288 -60t-286 60t-219 160.5t-140 228.5t-49 265.5zM338 698q0 -319 110.5 -462.5t327.5 -143.5q106 0 191.5 35 t144.5 108.5t91 188.5t32 274q0 168 -29.5 285t-88 190.5t-144.5 107.5t-197 34q-113 0 -195.5 -34t-137 -108.5t-80 -191.5t-25.5 -283zM442 1679.5q0 51.5 40 91t91.5 39.5t91.5 -39.5t40 -91t-40 -91.5t-91.5 -40t-91.5 40t-40 91.5zM864 1679.5q0 51.5 40 91t91.5 39.5 t91 -39.5t39.5 -91t-39.5 -91.5t-91 -40t-91.5 40t-40 91.5z" />
<glyph unicode="&#xd7;" horiz-adv-x="985" d="M119 303l303 313l-303 316l71 72l302 -314l303 314l71 -72l-303 -316l303 -313l-71 -72l-303 314l-302 -314z" />
<glyph unicode="&#xd8;" horiz-adv-x="1570" d="M82 698q0 137 50 268.5t142.5 232.5t220.5 163.5t281 62.5q115 0 216.5 -35.5t187.5 -97.5l163 211h127l-213 -274q109 -104 170.5 -243.5t61.5 -287.5q0 -137 -52.5 -265t-147.5 -228.5t-225 -160.5t-288 -60q-117 0 -215 31.5t-178 88.5l-156 -198h-127l205 262 q-109 104 -166 242t-57 288zM338 698q0 -135 16.5 -233t48.5 -170l703 901q-59 66 -141 92.5t-189 26.5q-113 0 -195.5 -34t-137 -108.5t-80 -191.5t-25.5 -283zM461 205q53 -61 132 -87t183 -26q106 0 191.5 35t144.5 108.5t91 188.5t32 274q0 137 -18.5 237.5t-53.5 172.5 z" />
<glyph unicode="&#xd9;" horiz-adv-x="1628" d="M78 1343v66h575v-66l-155 -40v-820q0 -115 19.5 -188.5t64.5 -116.5t116.5 -59.5t175.5 -16.5q102 0 172 17.5t115 61.5t64.5 120t19.5 191v811l-176 40v66h481v-66l-159 -40l-39 -877q-10 -225 -139.5 -333.5t-383.5 -108.5q-125 0 -229 29.5t-180 90t-118 150.5 t-42 209v840zM547 1751q0 31 16 57q25 41 78 41q27 0 55.5 -13t57.5 -46l157 -180l90 -60l-40 -67l-93 59l-223 90q-53 23 -75.5 54.5t-22.5 64.5z" />
<glyph unicode="&#xda;" horiz-adv-x="1628" d="M78 1343v66h575v-66l-155 -40v-820q0 -115 19.5 -188.5t64.5 -116.5t116.5 -59.5t175.5 -16.5q102 0 172 17.5t115 61.5t64.5 120t19.5 191v811l-176 40v66h481v-66l-159 -40l-39 -877q-10 -225 -139.5 -333.5t-383.5 -108.5q-125 0 -229 29.5t-180 90t-118 150.5 t-42 209v840zM625 1550l90 60l157 180q29 33 57.5 45t55.5 12q55 0 78 -39q18 -29 18 -59.5t-22.5 -62t-77.5 -54.5l-223 -90l-92 -59z" />
<glyph unicode="&#xdb;" horiz-adv-x="1628" d="M78 1343v66h575v-66l-155 -40v-820q0 -115 19.5 -188.5t64.5 -116.5t116.5 -59.5t175.5 -16.5q102 0 172 17.5t115 61.5t64.5 120t19.5 191v811l-176 40v66h481v-66l-159 -40l-39 -877q-10 -225 -139.5 -333.5t-383.5 -108.5q-125 0 -229 29.5t-180 90t-118 150.5 t-42 209v840zM528 1548q92 92 136.5 161t67 113t35.5 65.5t44 21.5t45 -21.5t36.5 -65.5t68 -112t137.5 -162l-37 -45l-248 162l-248 -162z" />
<glyph unicode="&#xdc;" horiz-adv-x="1628" d="M78 1343v66h575v-66l-155 -40v-820q0 -115 19.5 -188.5t64.5 -116.5t116.5 -59.5t175.5 -16.5q102 0 172 17.5t115 61.5t64.5 120t19.5 191v811l-176 40v66h481v-66l-159 -40l-39 -877q-10 -225 -139.5 -333.5t-383.5 -108.5q-125 0 -229 29.5t-180 90t-118 150.5 t-42 209v840zM471 1679.5q0 51.5 40 91t91 39.5t91 -39.5t40 -91t-40 -91.5t-91 -40t-91 40t-40 91.5zM893 1679.5q0 51.5 40 91t91 39.5t91 -39.5t40 -91t-40 -91.5t-91 -40t-91 40t-40 91.5z" />
<glyph unicode="&#xdd;" horiz-adv-x="1503" d="M37 1343v66h602v-66l-178 -51l366 -602l332 613l-184 40v66h491v-66l-161 -40l-420 -687v-510l198 -40v-66h-634v66l198 40v486l-457 700zM563 1550l90 60l158 180q29 33 57.5 45t55.5 12q55 0 77 -39q18 -29 18.5 -59.5t-22 -62t-77.5 -54.5l-224 -90l-92 -59z" />
<glyph unicode="&#xde;" horiz-adv-x="1325" d="M76 1343v66h629v-66l-199 -40v-160h233q111 0 208 -28t169 -81t114 -131t42 -176q0 -92 -34 -172t-96.5 -138.5t-152.5 -91t-203 -32.5q-76 0 -147 14l-133 23v-224l199 -40v-66h-629v66l192 40v1197zM506 1044v-628l168 -15q29 -4 53 -4h47q84 0 134 18.5t76 57.5 t34 102.5t8 151.5q0 102 -15.5 164.5t-52 96.5t-96 45t-147.5 11h-209z" />
<glyph unicode="&#xdf;" horiz-adv-x="1316" d="M29 864v56l170 38v52q0 150 42 254t108.5 169.5t148.5 95.5t159 30q68 0 136.5 -18.5t124 -58.5t90 -105.5t34.5 -162.5q0 -61 -24.5 -112t-64.5 -92t-92 -70t-109 -45v-4q94 -16 183 -58t158.5 -106.5t111.5 -151t42 -190.5q0 -88 -27.5 -161.5t-81 -127t-129 -83 t-171.5 -29.5q-150 0 -234 64.5t-84 158.5q0 68 43 111.5t99 43.5q53 0 91 -37.5t38 -89t-25 -91.5t-90 -50v-8q10 -6 35.5 -12t56.5 -6q57 0 105.5 15t83 51t54 93.5t19.5 141.5t-21.5 163.5t-70.5 144t-130 108.5t-198 57v82q129 25 192.5 91t63.5 193t-50 193.5 t-169 66.5q-131 0 -185 -86t-54 -241v-1141h-361v76h152v788h-170z" />
<glyph unicode="&#xe0;" horiz-adv-x="1021" d="M63 203q0 131 105.5 200.5t304.5 110.5l156 33v135q0 68 -16.5 110t-49.5 65.5t-80 32.5t-106 9q-53 0 -91 -9t-57 -20v-8q47 -12 68.5 -47t21.5 -72q0 -45 -31.5 -74.5t-82.5 -29.5q-53 0 -87 36t-34 91q0 57 34 101t89 74t123.5 45t138.5 15q92 0 160.5 -20t115 -70.5 t70 -137.5t23.5 -222v-371q0 -25 6 -39t23.5 -21t47 -11.5t76.5 -6.5v-47q-25 -16 -73 -41.5t-113 -25.5q-78 0 -127 41t-49 112v29q-25 -33 -59.5 -66.5t-75.5 -60.5t-87.5 -43t-93.5 -16q-113 0 -181.5 59.5t-68.5 159.5zM242 1358q0 31 16 57q25 41 78 41 q27 0 55.5 -13.5t57.5 -45.5l157 -180l90 -60l-41 -67l-92 59l-223 90q-53 23 -75.5 54.5t-22.5 64.5zM274 246q0 -66 30 -95.5t91 -29.5q74 0 128.5 30.5t105.5 90.5v239l-156 -51q-61 -20 -100 -39.5t-60.5 -41t-30 -46t-8.5 -57.5z" />
<glyph unicode="&#xe1;" horiz-adv-x="1021" d="M63 203q0 131 105.5 200.5t304.5 110.5l156 33v135q0 68 -16.5 110t-49.5 65.5t-80 32.5t-106 9q-53 0 -91 -9t-57 -20v-8q47 -12 68.5 -47t21.5 -72q0 -45 -31.5 -74.5t-82.5 -29.5q-53 0 -87 36t-34 91q0 57 34 101t89 74t123.5 45t138.5 15q92 0 160.5 -20t115 -70.5 t70 -137.5t23.5 -222v-371q0 -25 6 -39t23.5 -21t47 -11.5t76.5 -6.5v-47q-25 -16 -73 -41.5t-113 -25.5q-78 0 -127 41t-49 112v29q-25 -33 -59.5 -66.5t-75.5 -60.5t-87.5 -43t-93.5 -16q-113 0 -181.5 59.5t-68.5 159.5zM274 246q0 -66 30 -95.5t91 -29.5 q74 0 128.5 30.5t105.5 90.5v239l-156 -51q-61 -20 -100 -39.5t-60.5 -41t-30 -46t-8.5 -57.5zM319 1157l91 60l157 180q29 33 57.5 45t55.5 12q55 0 78 -39q18 -29 18 -59.5t-22.5 -62t-77.5 -54.5l-223 -90l-93 -59z" />
<glyph unicode="&#xe2;" horiz-adv-x="1021" d="M63 203q0 131 105.5 200.5t304.5 110.5l156 33v135q0 68 -16.5 110t-49.5 65.5t-80 32.5t-106 9q-53 0 -91 -9t-57 -20v-8q47 -12 68.5 -47t21.5 -72q0 -45 -31.5 -74.5t-82.5 -29.5q-53 0 -87 36t-34 91q0 57 34 101t89 74t123.5 45t138.5 15q92 0 160.5 -20t115 -70.5 t70 -137.5t23.5 -222v-371q0 -25 6 -39t23.5 -21t47 -11.5t76.5 -6.5v-47q-25 -16 -73 -41.5t-113 -25.5q-78 0 -127 41t-49 112v29q-25 -33 -59.5 -66.5t-75.5 -60.5t-87.5 -43t-93.5 -16q-113 0 -181.5 59.5t-68.5 159.5zM223 1155q92 92 136 160.5t67 113t36 66t44 21.5 t45 -21.5t36.5 -66t67.5 -112t138 -161.5l-37 -45l-248 162l-248 -162zM274 246q0 -66 30 -95.5t91 -29.5q74 0 128.5 30.5t105.5 90.5v239l-156 -51q-61 -20 -100 -39.5t-60.5 -41t-30 -46t-8.5 -57.5z" />
<glyph unicode="&#xe3;" horiz-adv-x="1021" d="M63 203q0 131 105.5 200.5t304.5 110.5l156 33v135q0 68 -16.5 110t-49.5 65.5t-80 32.5t-106 9q-53 0 -91 -9t-57 -20v-8q47 -12 68.5 -47t21.5 -72q0 -45 -31.5 -74.5t-82.5 -29.5q-53 0 -87 36t-34 91q0 57 34 101t89 74t123.5 45t138.5 15q92 0 160.5 -20t115 -70.5 t70 -137.5t23.5 -222v-371q0 -25 6 -39t23.5 -21t47 -11.5t76.5 -6.5v-47q-25 -16 -73 -41.5t-113 -25.5q-78 0 -127 41t-49 112v29q-25 -33 -59.5 -66.5t-75.5 -60.5t-87.5 -43t-93.5 -16q-113 0 -181.5 59.5t-68.5 159.5zM143 1163q59 123 123 189.5t146 66.5 q53 0 114 -30l117 -56q22 -11 41 -11q16 0 29 8q29 17 69 69l41 49l49 -31q-59 -123 -122.5 -189.5t-145.5 -66.5q-53 0 -115 31l-116 55q-22 11 -41 11q-16 0 -29 -8q-29 -17 -70 -68l-40 -49zM274 246q0 -66 30 -95.5t91 -29.5q74 0 128.5 30.5t105.5 90.5v239l-156 -51 q-61 -20 -100 -39.5t-60.5 -41t-30 -46t-8.5 -57.5z" />
<glyph unicode="&#xe4;" horiz-adv-x="1021" d="M63 203q0 131 105.5 200.5t304.5 110.5l156 33v135q0 68 -16.5 110t-49.5 65.5t-80 32.5t-106 9q-53 0 -91 -9t-57 -20v-8q47 -12 68.5 -47t21.5 -72q0 -45 -31.5 -74.5t-82.5 -29.5q-53 0 -87 36t-34 91q0 57 34 101t89 74t123.5 45t138.5 15q92 0 160.5 -20t115 -70.5 t70 -137.5t23.5 -222v-371q0 -25 6 -39t23.5 -21t47 -11.5t76.5 -6.5v-47q-25 -16 -73 -41.5t-113 -25.5q-78 0 -127 41t-49 112v29q-25 -33 -59.5 -66.5t-75.5 -60.5t-87.5 -43t-93.5 -16q-113 0 -181.5 59.5t-68.5 159.5zM166 1286q0 51 40 91t91 40t91 -40t40 -91 t-40 -91t-91 -40t-91 40t-40 91zM274 246q0 -66 30 -95.5t91 -29.5q74 0 128.5 30.5t105.5 90.5v239l-156 -51q-61 -20 -100 -39.5t-60.5 -41t-30 -46t-8.5 -57.5zM588 1286q0 51 40 91t91 40t91 -40t40 -91t-40 -91t-91 -40t-91 40t-40 91z" />
<glyph unicode="&#xe5;" horiz-adv-x="1021" d="M63 203q0 131 105.5 200.5t304.5 110.5l156 33v135q0 68 -16.5 110t-49.5 65.5t-80 32.5t-106 9q-53 0 -91 -9t-57 -20v-8q47 -12 68.5 -47t21.5 -72q0 -45 -31.5 -74.5t-82.5 -29.5q-53 0 -87 36t-34 91q0 57 34 101t89 74t123.5 45t138.5 15q92 0 160.5 -20t115 -70.5 t70 -137.5t23.5 -222v-371q0 -25 6 -39t23.5 -21t47 -11.5t76.5 -6.5v-47q-25 -16 -73 -41.5t-113 -25.5q-78 0 -127 41t-49 112v29q-25 -33 -59.5 -66.5t-75.5 -60.5t-87.5 -43t-93.5 -16q-113 0 -181.5 59.5t-68.5 159.5zM274 246q0 -66 30 -95.5t91 -29.5 q74 0 128.5 30.5t105.5 90.5v239l-156 -51q-61 -20 -100 -39.5t-60.5 -41t-30 -46t-8.5 -57.5zM279 1315q0 45 19 85t51 70.5t73 48t86 17.5t86 -17.5t72.5 -48t51 -70.5t19.5 -85t-19.5 -85t-51 -71t-72.5 -48t-86 -17t-86 17t-73 48t-51 71t-19 85zM381 1314.5 q0 -71.5 36 -107.5t91 -36t91 36t36 107.5t-36 107.5t-91 36t-91 -36t-36 -107.5z" />
<glyph unicode="&#xe6;" horiz-adv-x="1517" d="M63 203q0 131 105.5 200.5t304.5 110.5l156 33v135q0 68 -16.5 110t-49.5 65.5t-80 32.5t-106 9q-53 0 -91 -9t-57 -20v-8q47 -12 68.5 -47t21.5 -72q0 -45 -31.5 -74.5t-82.5 -29.5q-53 0 -87 36t-34 91q0 57 34 101t89 74t123.5 45t138.5 15q113 0 186.5 -30.5 t114.5 -114.5q55 68 133 106.5t176 38.5q78 0 149.5 -23.5t125 -78.5t86.5 -145t35 -224h-631v-26q0 -123 17.5 -202t53 -124t89 -61.5t126.5 -16.5q86 0 148.5 14.5t128.5 39.5l22 -56q-72 -47 -158.5 -80.5t-197.5 -33.5q-147 0 -243.5 65.5t-145.5 169.5 q-72 -98 -168 -166.5t-203 -68.5q-113 0 -181.5 59.5t-68.5 159.5zM274 246q0 -66 30 -95.5t91 -29.5q78 0 138.5 41t125.5 119q-31 92 -30 198v2l-156 -51q-61 -20 -100 -39.5t-60.5 -41t-30 -46t-8.5 -57.5zM848 625h416q-4 90 -14.5 145t-32 87t-55.5 43t-85 11 q-45 0 -83 -8t-68.5 -37.5t-50 -87t-27.5 -153.5z" />
<glyph unicode="&#xe7;" horiz-adv-x="931" d="M55 494q0 96 32 187t94.5 162.5t154.5 114.5t211 43q147 0 237 -64.5t90 -174.5q0 -51 -34.5 -90t-94.5 -39q-53 0 -90 34.5t-37 86.5q0 94 93 127v8q-16 6 -49 14t-95 8q-63 0 -115.5 -16t-90 -59t-58 -121t-20.5 -201q0 -127 21.5 -208t61.5 -127t97 -63.5t131 -17.5 q76 0 129 14.5t113 37.5l24 -56q-66 -41 -137.5 -72.5t-169.5 -35.5l-84 -113q115 -25 162 -75t47 -113q0 -70 -63.5 -115t-165.5 -45q-68 0 -128.5 20.5t-84.5 36.5l20 45q35 -10 72 -19t84 -9q68 0 98.5 17t30.5 52t-35 57.5t-141 32.5l-15 23l119 207q-100 8 -178 55 t-130 116.5t-79 157t-27 177.5z" />
<glyph unicode="&#xe8;" horiz-adv-x="956" d="M55 479q0 104 34 198.5t94.5 166t145.5 114.5t185 43q78 0 149.5 -23.5t125 -78.5t86 -145t34.5 -224h-630v-26q0 -121 17 -199t53 -124t89.5 -63.5t126.5 -17.5q86 0 148.5 14.5t128.5 39.5l24 -56q-72 -47 -160 -80.5t-198 -33.5q-113 0 -198 41t-142 110.5t-85 158.5 t-28 185zM205 1358q0 31 16 57q25 41 78 41q27 0 55.5 -13.5t57.5 -45.5l157 -180l90 -60l-41 -67l-92 59l-223 90q-53 23 -75.5 54.5t-22.5 64.5zM283 625h415q-4 90 -14 145t-31.5 87t-55.5 43t-85 11q-45 0 -83 -11t-68.5 -42t-50 -87t-27.5 -146z" />
<glyph unicode="&#xe9;" horiz-adv-x="956" d="M55 479q0 104 34 198.5t94.5 166t145.5 114.5t185 43q78 0 149.5 -23.5t125 -78.5t86 -145t34.5 -224h-630v-26q0 -121 17 -199t53 -124t89.5 -63.5t126.5 -17.5q86 0 148.5 14.5t128.5 39.5l24 -56q-72 -47 -160 -80.5t-198 -33.5q-113 0 -198 41t-142 110.5t-85 158.5 t-28 185zM283 625h415q-4 90 -14 145t-31.5 87t-55.5 43t-85 11q-45 0 -83 -11t-68.5 -42t-50 -87t-27.5 -146zM283 1157l90 60l157 180q29 33 57.5 45t55.5 12q55 0 78 -39q18 -29 18 -59.5t-22.5 -62t-77.5 -54.5l-223 -90l-92 -59z" />
<glyph unicode="&#xea;" horiz-adv-x="956" d="M55 479q0 104 34 198.5t94.5 166t145.5 114.5t185 43q78 0 149.5 -23.5t125 -78.5t86 -145t34.5 -224h-630v-26q0 -121 17 -199t53 -124t89.5 -63.5t126.5 -17.5q86 0 148.5 14.5t128.5 39.5l24 -56q-72 -47 -160 -80.5t-198 -33.5q-113 0 -198 41t-142 110.5t-85 158.5 t-28 185zM186 1155q92 92 136.5 160.5t67 113t35.5 66t44 21.5t45 -21.5t36.5 -66t68 -112t137.5 -161.5l-37 -45l-248 162l-248 -162zM283 625h415q-4 90 -14 145t-31.5 87t-55.5 43t-85 11q-45 0 -83 -11t-68.5 -42t-50 -87t-27.5 -146z" />
<glyph unicode="&#xeb;" horiz-adv-x="956" d="M55 479q0 104 34 198.5t94.5 166t145.5 114.5t185 43q78 0 149.5 -23.5t125 -78.5t86 -145t34.5 -224h-630v-26q0 -121 17 -199t53 -124t89.5 -63.5t126.5 -17.5q86 0 148.5 14.5t128.5 39.5l24 -56q-72 -47 -160 -80.5t-198 -33.5q-113 0 -198 41t-142 110.5t-85 158.5 t-28 185zM129 1286q0 51 40 91t91 40t91 -40t40 -91t-40 -91t-91 -40t-91 40t-40 91zM283 625h415q-4 90 -14 145t-31.5 87t-55.5 43t-85 11q-45 0 -83 -11t-68.5 -42t-50 -87t-27.5 -146zM551 1286q0 51 40 91t91 40t91 -40t40 -91t-40 -91t-91 -40t-91 40t-40 91z" />
<glyph unicode="&#xec;" horiz-adv-x="595" d="M47 1358q0 31 16 57q25 41 78 41q27 0 55.5 -13t57.5 -46l158 -180l90 -60l-41 -67l-92 59l-224 90q-53 23 -75.5 54.5t-22.5 64.5zM49 821v39l338 129h47v-913h146v-76h-517v76h162v682z" />
<glyph unicode="&#xed;" horiz-adv-x="595" d="M33 821v39l338 129h47v-913h145v-76h-516v76h162v682zM109 1157l90 60l157 180q29 33 57.5 45t55.5 12q55 0 78 -39q18 -29 18 -59.5t-22.5 -62t-77.5 -54.5l-223 -90l-92 -59z" />
<glyph unicode="&#xee;" horiz-adv-x="595" d="M12 1155q92 92 136.5 160.5t67 113t35.5 66t44 21.5t45 -21.5t36.5 -66t67.5 -112t138 -161.5l-37 -45l-248 162l-248 -162zM33 821v39l338 129h47v-913h145v-76h-516v76h162v682z" />
<glyph unicode="&#xef;" horiz-adv-x="595" d="M-45 1286q0 51 40 91t91 40t91 -40t40 -91t-40 -91t-91 -40t-91 40t-40 91zM33 821v39l338 129h47v-913h145v-76h-516v76h162v682zM377 1286q0 51 40 91t91 40t91 -40t40 -91t-40 -91t-91 -40t-91 40t-40 91z" />
<glyph unicode="&#xf0;" d="M55 493.5q0 96.5 36 187.5t99.5 162.5t149.5 114.5t186 43q102 0 174 -45q-84 158 -180 271l-233 -107l-43 88l205 95q-47 47 -96.5 85.5t-102.5 75.5l41 66q66 -33 137.5 -75t142.5 -95l232 106l43 -88l-191 -88q76 -68 142.5 -147.5t117 -172.5t79 -200.5t28.5 -228.5 q0 -119 -36 -221.5t-100.5 -177t-153.5 -116.5t-193.5 -42t-192.5 44t-152.5 115.5t-101.5 162.5t-37 187.5zM283 494q0 -135 21.5 -218t56 -127.5t81.5 -58.5t96.5 -14t96.5 14t82 58.5t56.5 127t21.5 218.5q0 123 -15.5 203.5t-38.5 136.5q-53 45 -100 60t-102 15 q-49 0 -95.5 -13t-82 -57t-57 -126t-21.5 -219z" />
<glyph unicode="&#xf1;" horiz-adv-x="1222" d="M33 821v39l327 129h41l-26 -237l4 -2q90 117 176 184t203 67q150 0 215 -93t65 -240v-592h131v-76h-475v76h135v647q0 80 -30.5 111.5t-106.5 31.5t-138 -39t-146 -133v-618h135v-76h-496v76h152v682zM246 1163q59 123 122.5 189.5t145.5 66.5q53 0 115 -30l116 -56 q22 -11 41 -11q16 0 29 8q29 17 70 69l41 49l49 -31q-59 -123 -123 -189.5t-145 -66.5q-53 0 -115 31l-117 55q-22 11 -41 11q-16 0 -28 -8q-29 -17 -70 -68l-41 -49z" />
<glyph unicode="&#xf2;" d="M55 493.5q0 96.5 37 187.5t101.5 162.5t152.5 114.5t192.5 43t193.5 -43t153.5 -114.5t100.5 -162.5t36 -187.5t-36 -187.5t-100.5 -162.5t-153.5 -115.5t-193.5 -44t-192.5 44t-152.5 115.5t-101.5 162.5t-37 187.5zM266 1358q0 31 17 57q25 41 77 41q27 0 55.5 -13 t57.5 -46l158 -180l90 -60l-41 -67l-92 59l-223 90q-53 23 -76 54.5t-23 64.5zM283 494q0 -135 21.5 -218t56 -127.5t81.5 -58.5t96.5 -14t96.5 14t82 58.5t56.5 127t21.5 218.5q0 137 -21.5 219t-57.5 126t-82 57t-95.5 13t-95.5 -13t-81.5 -57t-57 -126t-21.5 -219z" />
<glyph unicode="&#xf3;" d="M55 493.5q0 96.5 37 187.5t101.5 162.5t152.5 114.5t192.5 43t193.5 -43t153.5 -114.5t100.5 -162.5t36 -187.5t-36 -187.5t-100.5 -162.5t-153.5 -115.5t-193.5 -44t-192.5 44t-152.5 115.5t-101.5 162.5t-37 187.5zM283 494q0 -135 21.5 -218t56 -127.5t81.5 -58.5 t96.5 -14t96.5 14t82 58.5t56.5 127t21.5 218.5q0 137 -21.5 219t-57.5 126t-82 57t-95.5 13t-95.5 -13t-81.5 -57t-57 -126t-21.5 -219zM344 1157l90 60l158 180q29 33 57.5 45t55.5 12q55 0 77 -39q18 -29 18.5 -59.5t-22 -62t-78.5 -54.5l-223 -90l-92 -59z" />
<glyph unicode="&#xf4;" d="M55 493.5q0 96.5 37 187.5t101.5 162.5t152.5 114.5t192.5 43t193.5 -43t153.5 -114.5t100.5 -162.5t36 -187.5t-36 -187.5t-100.5 -162.5t-153.5 -115.5t-193.5 -44t-192.5 44t-152.5 115.5t-101.5 162.5t-37 187.5zM248 1155q92 92 136 160.5t66.5 113t36 66t44 21.5 t45 -21.5t37 -66t67.5 -112t137 -161.5l-37 -45l-248 162l-247 -162zM283 494q0 -135 21.5 -218t56 -127.5t81.5 -58.5t96.5 -14t96.5 14t82 58.5t56.5 127t21.5 218.5q0 137 -21.5 219t-57.5 126t-82 57t-95.5 13t-95.5 -13t-81.5 -57t-57 -126t-21.5 -219z" />
<glyph unicode="&#xf5;" d="M55 493.5q0 96.5 37 187.5t101.5 162.5t152.5 114.5t192.5 43t193.5 -43t153.5 -114.5t100.5 -162.5t36 -187.5t-36 -187.5t-100.5 -162.5t-153.5 -115.5t-193.5 -44t-192.5 44t-152.5 115.5t-101.5 162.5t-37 187.5zM168 1163q59 123 122.5 189.5t145.5 66.5 q53 0 115 -30l117 -56q22 -11 40 -11q16 0 29 8q29 17 70 69l41 49l49 -31q-59 -123 -122.5 -189.5t-145.5 -66.5q-53 0 -115 31l-117 55q-22 11 -40 11q-16 0 -29 -8q-29 -17 -70 -68l-41 -49zM283 494q0 -135 21.5 -218t56 -127.5t81.5 -58.5t96.5 -14t96.5 14t82 58.5 t56.5 127t21.5 218.5q0 137 -21.5 219t-57.5 126t-82 57t-95.5 13t-95.5 -13t-81.5 -57t-57 -126t-21.5 -219z" />
<glyph unicode="&#xf6;" d="M55 493.5q0 96.5 37 187.5t101.5 162.5t152.5 114.5t192.5 43t193.5 -43t153.5 -114.5t100.5 -162.5t36 -187.5t-36 -187.5t-100.5 -162.5t-153.5 -115.5t-193.5 -44t-192.5 44t-152.5 115.5t-101.5 162.5t-37 187.5zM190 1286q0 51 40 91t91.5 40t91.5 -40t40 -91 t-40 -91t-91.5 -40t-91.5 40t-40 91zM283 494q0 -135 21.5 -218t56 -127.5t81.5 -58.5t96.5 -14t96.5 14t82 58.5t56.5 127t21.5 218.5q0 137 -21.5 219t-57.5 126t-82 57t-95.5 13t-95.5 -13t-81.5 -57t-57 -126t-21.5 -219zM612 1286q0 51 40 91t91.5 40t91 -40t39.5 -91 t-39.5 -91t-91 -40t-91.5 40t-40 91z" />
<glyph unicode="&#xf7;" horiz-adv-x="985" d="M102 539v104h781v-104h-781zM358 250q0 53 40 93t93.5 40t93.5 -40t40 -93t-40 -92t-93.5 -39t-93.5 39t-40 92zM358 927.5q0 53.5 40 93.5t93.5 40t93.5 -40t40 -93.5t-40 -92t-93.5 -38.5t-93.5 38.5t-40 92z" />
<glyph unicode="&#xf8;" d="M47 -94l162 217q-72 74 -113 170t-41 201q0 96 37 187t101.5 162.5t152.5 114.5t193 43q74 0 139 -22.5t123 -61.5l121 162h108l-164 -219q72 -72 114 -168t42 -198q0 -96 -36 -187.5t-100.5 -163t-153.5 -115.5t-193 -44q-74 0 -140.5 21.5t-122.5 62.5l-120 -162h-109z M283 494q0 -78 6 -136.5t16 -103.5l426 571q-35 53 -84 68.5t-108 15.5q-49 0 -95.5 -13t-82 -57t-57 -126t-21.5 -219zM346 160q35 -53 84 -68.5t109 -15.5q49 0 96 14t82 58.5t56.5 127t21.5 218.5q0 152 -25 237z" />
<glyph unicode="&#xf9;" horiz-adv-x="1222" d="M33 893v76h360v-707q0 -80 31 -111.5t106 -31.5q39 0 72 9t66.5 29.5t68.5 53.5t78 80v602h-156v76h365v-785l166 -55v-47l-328 -94h-41l27 239l-4 2q-90 -111 -176 -178t-203 -67q-150 0 -215.5 93t-65.5 240v576h-151zM344 1358q0 31 16 57q25 41 78 41q27 0 55.5 -13 t57.5 -46l158 -180l90 -60l-41 -67l-92 59l-224 90q-53 23 -75.5 54.5t-22.5 64.5z" />
<glyph unicode="&#xfa;" horiz-adv-x="1222" d="M33 893v76h360v-707q0 -80 31 -111.5t106 -31.5q39 0 72 9t66.5 29.5t68.5 53.5t78 80v602h-156v76h365v-785l166 -55v-47l-328 -94h-41l27 239l-4 2q-90 -111 -176 -178t-203 -67q-150 0 -215.5 93t-65.5 240v576h-151zM422 1157l90 60l158 180q29 33 57.5 45t54.5 12 q55 0 78 -39q18 -29 18.5 -59.5t-22 -62t-78.5 -54.5l-223 -90l-92 -59z" />
<glyph unicode="&#xfb;" horiz-adv-x="1222" d="M33 893v76h360v-707q0 -80 31 -111.5t106 -31.5q39 0 72 9t66.5 29.5t68.5 53.5t78 80v602h-156v76h365v-785l166 -55v-47l-328 -94h-41l27 239l-4 2q-90 -111 -176 -178t-203 -67q-150 0 -215.5 93t-65.5 240v576h-151zM326 1155q92 92 136 160.5t66.5 113t36 66 t44 21.5t45 -21.5t37 -66t67.5 -112t137 -161.5l-37 -45l-248 162l-248 -162z" />
<glyph unicode="&#xfc;" horiz-adv-x="1222" d="M33 893v76h360v-707q0 -80 31 -111.5t106 -31.5q39 0 72 9t66.5 29.5t68.5 53.5t78 80v602h-156v76h365v-785l166 -55v-47l-328 -94h-41l27 239l-4 2q-90 -111 -176 -178t-203 -67q-150 0 -215.5 93t-65.5 240v576h-151zM268 1286q0 51 40 91t91.5 40t91 -40t39.5 -91 t-39.5 -91t-91 -40t-91.5 40t-40 91zM690 1286q0 51 40 91t91 40t91 -40t40 -91t-40 -91t-91 -40t-91 40t-40 91z" />
<glyph unicode="&#xfd;" horiz-adv-x="1103" d="M12 893v76h502v-76h-152l252 -717l248 717h-135v76h365v-76h-111l-434 -1090q-29 -72 -59.5 -121t-65.5 -77.5t-75 -41t-87 -12.5q-78 0 -125 42t-47 104q0 49 32 85t79 36t78.5 -30t31.5 -81q0 -41 -28 -69l2 -9q61 2 103 54.5t81 156.5l57 160h-37l-358 893h-117z M362 1157l91 60l157 180q29 33 57.5 45t55.5 12q55 0 78 -39q18 -29 18 -59.5t-22.5 -62t-77.5 -54.5l-223 -90l-93 -59z" />
<glyph unicode="&#xfe;" horiz-adv-x="1138" d="M-8 1374v39l327 129h48v-581l-33 -195l4 -2q37 45 77 88t86 76t98 53t116 20q82 0 150.5 -36.5t118.5 -103t79 -160t29 -203.5q0 -119 -35 -214.5t-95.5 -162t-142.5 -102t-178 -35.5q-78 0 -145.5 22.5t-128.5 81.5v-381h176v-76h-537v76h152v1604zM367 170 q47 -41 100 -68.5t127 -27.5q55 0 102 14t82 47q88 86 88 363q0 137 -18.5 222t-63.5 120q-29 23 -64.5 28.5t-60.5 5.5q-51 0 -91 -13t-73.5 -36.5t-64.5 -55.5l-63 -67v-532z" />
<glyph unicode="&#xff;" horiz-adv-x="1103" d="M12 893v76h502v-76h-152l252 -717l248 717h-135v76h365v-76h-111l-434 -1090q-29 -72 -59.5 -121t-65.5 -77.5t-75 -41t-87 -12.5q-78 0 -125 42t-47 104q0 49 32 85t79 36t78.5 -30t31.5 -81q0 -41 -28 -69l2 -9q61 2 103 54.5t81 156.5l57 160h-37l-358 893h-117z M209 1286q0 51 40 91t91 40t91 -40t40 -91t-40 -91t-91 -40t-91 40t-40 91zM631 1286q0 51 40 91t91 40t91 -40t40 -91t-40 -91t-91 -40t-91 40t-40 91z" />
<glyph unicode="&#x152;" horiz-adv-x="2144" d="M82 704.5q0 137.5 51 266.5t148.5 230.5t240 162.5t324.5 61q82 0 138 -5t93 -11h879l49 -395l-43 -10l-203 296l-477 37v-577l258 16l84 223h49v-544h-49l-84 211l-258 14v-602l553 31l219 362l49 -10l-61 -461h-975q-43 -8 -102.5 -12t-118.5 -4q-182 0 -324.5 61 t-240 161.5t-148.5 230.5t-51 267.5zM336 705q0 -180 29.5 -299t93 -191t163 -101.5t238.5 -29.5q41 0 75 4t58 8q29 6 51 10v1199q-18 6 -45 12q-23 4 -57.5 7t-81.5 3q-145 0 -245.5 -32.5t-162 -106.5t-89 -192.5t-27.5 -290.5z" />
<glyph unicode="&#x153;" horiz-adv-x="1695" d="M55 493.5q0 96.5 37 187.5t101.5 162.5t152.5 114.5t193 43q125 0 217 -57t147 -153q53 98 140 154t210 56q78 0 150 -23.5t125 -78.5t86 -145t35 -224h-631v-26q0 -123 17.5 -202t53 -124t89 -61.5t127.5 -16.5q86 0 148.5 14.5t127.5 39.5l25 -56q-72 -47 -160 -80.5 t-199 -33.5q-135 0 -220 53t-132 143q-55 -90 -145.5 -143t-210.5 -53q-104 0 -192.5 44t-153 115.5t-101.5 162.5t-37 187.5zM283 494q0 -135 21.5 -218t56 -127.5t81.5 -58.5t96.5 -14t96.5 14t82 58.5t56.5 127t21.5 218.5q0 137 -21.5 219t-57.5 126t-82 57t-95.5 13 t-95.5 -13t-81.5 -57t-57 -126t-21.5 -219zM1022 625h416q-4 90 -14.5 145t-32 87t-55 43t-85.5 11q-45 0 -83 -8t-68.5 -37.5t-50 -87t-27.5 -153.5z" />
<glyph unicode="&#x178;" horiz-adv-x="1503" d="M37 1343v66h602v-66l-178 -51l366 -602l332 613l-184 40v66h491v-66l-161 -40l-420 -687v-510l198 -40v-66h-634v66l198 40v486l-457 700zM410 1679.5q0 51.5 39.5 91t91 39.5t91.5 -39.5t40 -91t-40 -91.5t-91.5 -40t-91 40t-39.5 91.5zM831 1679.5q0 51.5 40 91 t91.5 39.5t91.5 -39.5t40 -91t-40 -91.5t-91.5 -40t-91.5 40t-40 91.5z" />
<glyph unicode="&#x2c6;" horiz-adv-x="995" d="M213 1155q92 92 136 160.5t66.5 113t36 66t44 21.5t45 -21.5t37 -66t67.5 -112t137 -161.5l-37 -45l-247 162l-248 -162z" />
<glyph unicode="&#x2dc;" horiz-adv-x="995" d="M133 1163q59 123 122.5 189.5t145.5 66.5q53 0 115 -30l117 -56q41 -20 69.5 -2.5t69.5 68.5l41 49l49 -31q-59 -123 -122.5 -189.5t-145.5 -66.5q-53 0 -115 31l-117 55q-41 20 -69.5 3t-69.5 -68l-41 -49z" />
<glyph unicode="&#x2013;" horiz-adv-x="1128" d="M143 512v111h842v-111h-842z" />
<glyph unicode="&#x2014;" horiz-adv-x="1845" d="M143 512v111h1559v-111h-1559z" />
<glyph unicode="&#x2018;" horiz-adv-x="483" d="M94 1085q0 55 19.5 111.5t56.5 107t92 92.5t129 66l23 -45q-92 -61 -130 -121.5t-42 -119.5l4 -5q16 0 38.5 -5t43 -19t36 -39t15.5 -66q0 -57 -41 -94t-96.5 -37t-101.5 41t-46 133z" />
<glyph unicode="&#x2019;" horiz-adv-x="483" d="M70 915q92 61 130 122t42 120l-6 8q-14 0 -37 4.5t-44.5 17.5t-36 38.5t-14.5 64.5q0 57 41 94t96.5 37t101.5 -41t46 -133q0 -55 -19.5 -110.5t-56.5 -106.5t-92 -93t-129 -67z" />
<glyph unicode="&#x201a;" horiz-adv-x="483" d="M72 -246q92 61 129 124t41 122l-4 4q-14 0 -38 5t-44.5 19.5t-36 40t-15.5 64.5q0 57 41 94t96.5 37t101.5 -41t46 -133q0 -55 -19.5 -111.5t-56.5 -106.5t-92 -92t-129 -67z" />
<glyph unicode="&#x201c;" horiz-adv-x="888" d="M94 1087q0 55 19.5 111.5t56.5 107t92 92.5t129 66l23 -45q-92 -61 -130 -121.5t-42 -119.5l4 -4q16 0 38.5 -5.5t43 -19.5t36 -39t15.5 -66q0 -57 -41 -94t-96.5 -37t-101.5 41t-46 133zM500 1087q0 55 19.5 111.5t56 107t92 92.5t129.5 66l22 -45q-92 -61 -130 -121.5 t-42 -119.5l4 -4q16 0 39 -5.5t43.5 -19.5t35.5 -39t15 -66q0 -57 -41 -94t-96 -37t-101 41t-46 133z" />
<glyph unicode="&#x201d;" horiz-adv-x="888" d="M70 915q92 61 130 122t42 120l-4 4q-14 0 -38 5t-44.5 19.5t-36 40t-15.5 64.5q0 57 41 94t96.5 37t101.5 -41t46 -133q0 -55 -19.5 -110.5t-56.5 -106.5t-92 -93t-129 -67zM475 915q92 61 130 122t42 120l-4 4q-14 0 -37.5 5t-44 19.5t-36 40t-15.5 64.5q0 57 41 94 t96 37t101.5 -41t46.5 -133q0 -55 -19.5 -110.5t-56.5 -106.5t-92.5 -93t-128.5 -67z" />
<glyph unicode="&#x201e;" horiz-adv-x="888" d="M72 -246q92 61 129 124t41 122l-4 4q-14 0 -38 5t-44.5 19.5t-36 40t-15.5 64.5q0 57 41 94t96.5 37t101.5 -41t46 -133q0 -55 -19.5 -111.5t-56.5 -106.5t-92 -92t-129 -67zM477 -246q92 61 129 124t41 122l-4 4q-14 0 -37.5 5t-44 19.5t-36 40t-15.5 64.5q0 57 41 94 t96 37t101.5 -41t46.5 -133q0 -55 -19.5 -111.5t-56.5 -106.5t-92.5 -92t-128.5 -67z" />
<glyph unicode="&#x2022;" horiz-adv-x="745" d="M102 606q0 53 22.5 102.5t60.5 87.5t87.5 60.5t100.5 22.5q53 0 102 -22.5t86 -60.5t59.5 -87.5t22.5 -102.5q0 -51 -22.5 -99t-59.5 -85t-86 -59.5t-102 -22.5q-51 0 -100.5 22.5t-87.5 59.5t-60.5 85t-22.5 99z" />
<glyph unicode="&#x2026;" horiz-adv-x="1503" d="M119 127q0 57 44 101t101.5 44t101.5 -44t44 -101t-44 -100t-101.5 -43t-101.5 43t-44 100zM606 127q0 57 44 101t101.5 44t101.5 -44t44 -101t-44 -100t-101.5 -43t-101.5 43t-44 100zM1094 127q0 57 44 101t101 44t101 -44t44 -101t-44 -100t-101 -43t-101 43t-44 100z " />
<glyph unicode="&#x2039;" horiz-adv-x="628" d="M84 471v70l414 385l57 -52l-244 -415l244 -342l-57 -54z" />
<glyph unicode="&#x203a;" horiz-adv-x="628" d="M74 115l243 415l-243 342l57 54l414 -408v-69l-414 -386z" />
<glyph unicode="&#x20ac;" horiz-adv-x="1105" d="M25 406v100h145q-4 23 -4 44v44v22q0 12 2 25h-143v100h157q23 96 73 182.5t123 151t165 103.5t198 39q147 0 237.5 -62.5t90.5 -173.5q0 -70 -40 -110t-99 -40q-53 0 -87 34t-34 81q0 55 33 90t92 39v8q-20 16 -58 29.5t-110 13.5q-63 0 -123.5 -15t-109 -58t-83 -118 t-47.5 -194h334v-100h-342v-47v-45q0 -23 2 -43h340v-100h-331q12 -98 39.5 -161t65.5 -98.5t85 -49t100 -13.5q111 0 182.5 45t127.5 113l61 -47q-27 -39 -62.5 -77t-84 -68t-106.5 -48t-132 -18q-94 0 -173 32.5t-142.5 90t-107.5 134t-69 165.5h-165z" />
<glyph unicode="&#x2122;" horiz-adv-x="1802" d="M39 1120l16 289h662l16 -289l-35 -8l-114 221l-115 17v-574l113 -24v-47h-389v47l110 24v574l-115 -17l-114 -221zM815 705v47l96 24v561l-96 25v47h297l178 -469l174 469h295v-47l-88 -25v-561l88 -24v-47h-338v47l84 24v535l-221 -582h-65l-240 582l29 -535l84 -24v-47 h-277z" />
<glyph unicode="&#xe000;" horiz-adv-x="970" d="M0 970h970v-970h-970v970z" />
<glyph unicode="&#xfb01;" horiz-adv-x="1210" d="M29 864v56l170 38v123q0 129 36.5 220.5t95 147.5t132.5 83t147 27q72 0 132.5 -17.5t104.5 -49.5t68.5 -76t24.5 -99q0 -68 -38 -109t-97 -41q-53 0 -96 37t-43 92q0 53 29.5 88t92.5 43v5q-23 16 -56.5 26t-90.5 10q-125 0 -179 -68.5t-54 -221.5v-209h514l63 20h47 v-913h146v-76h-476v76h121v788h-415v-788h151v-76h-512v76h152v788h-170z" />
<glyph unicode="&#xfb02;" horiz-adv-x="1210" d="M29 864v56l170 38v146q0 127 37.5 214t96 140t130.5 77t141 24q80 0 145.5 -24t106.5 -65l129 72h47v-1466h146v-76h-476v76h121v1132q-20 -4 -30 -4q-47 0 -79 31t-32 80q0 45 27.5 74.5t68.5 37.5v5q-16 16 -56 26t-89 10q-111 0 -168 -60t-57 -208v-231h235v-105h-235 v-788h151v-76h-512v76h152v788h-170z" />
<glyph unicode="&#xfb03;" horiz-adv-x="1935" d="M29 864v56l170 38v152q0 133 36.5 220t93 137.5t125 71t130.5 20.5q121 0 195.5 -61.5t74.5 -164.5q0 -53 -35 -92t-90 -39q-51 0 -86 33t-35 78q0 55 31 86t78 37v8q-12 10 -37 17t-59 7q-63 0 -104.5 -13t-66 -42t-33.5 -76t-9 -112v-256h235v-105h-235v-788h176v-76 h-537v76h152v788h-170zM698 864v56l170 38v152q0 133 37 220t93.5 137.5t125 71t129.5 20.5q121 0 196 -61.5t75 -164.5q0 -53 -35 -92t-90 -39q-51 0 -86 33t-35 78q0 55 30.5 86t77.5 37v8q-12 10 -36.5 17t-59.5 7q-63 0 -104 -13t-65.5 -42t-34 -76t-9.5 -112v-256h236 v-105h-236v-788h176v-76h-536v76h151v788h-170zM1372 821v39l338 129h47v-913h146v-76h-517v76h162v682zM1495 1345.5q0 57.5 43 103.5t100.5 46t100.5 -46t43 -103.5t-43 -103.5t-100.5 -46t-100.5 46t-43 103.5z" />
<glyph unicode="&#xfb04;" horiz-adv-x="1935" d="M29 864v56l170 38v152q0 133 36.5 220t93 137.5t125 71t130.5 20.5q121 0 195.5 -61.5t74.5 -164.5q0 -53 -35 -92t-90 -39q-51 0 -86 33t-35 78q0 55 31 86t78 37v8q-12 10 -37 17t-59 7q-63 0 -104.5 -13t-66 -42t-33.5 -76t-9 -112v-256h235v-105h-235v-788h176v-76 h-537v76h152v788h-170zM698 864v56l170 38v152q0 133 37 220t93.5 137.5t125 71t129.5 20.5q121 0 196 -61.5t75 -164.5q0 -53 -35 -92t-90 -39q-51 0 -86 33t-35 78q0 55 30.5 86t77.5 37v8q-12 10 -36.5 17t-59.5 7q-63 0 -104 -13t-65.5 -42t-34 -76t-9.5 -112v-256h236 v-105h-236v-788h176v-76h-536v76h151v788h-170zM1372 1374v39l338 129h47v-1466h146v-76h-517v76h162v1235z" />
</font>
</defs>
</svg>
